<?xml version="1.0" standalone="no"?>
<!DOCTYPE svg PUBLIC "-//W3C//DTD SVG 1.1//EN" "http://www.w3.org/Graphics/SVG/1.1/DTD/svg11.dtd" >
<svg xmlns="http://www.w3.org/2000/svg">
<metadata></metadata>
<defs>
<font id="proxima_nova_lightlight" horiz-adv-x="1169" >
<font-face units-per-em="2048" ascent="1638" descent="-410" />
<missing-glyph horiz-adv-x="530" />
<glyph horiz-adv-x="2048" />
<glyph horiz-adv-x="2048" />
<glyph unicode="&#xd;" horiz-adv-x="681" />
<glyph unicode=" "  horiz-adv-x="530" />
<glyph unicode="&#x09;" horiz-adv-x="530" />
<glyph unicode="&#xa0;" horiz-adv-x="530" />
<glyph unicode="!" horiz-adv-x="448" d="M135 72q0 35 27.5 61.5t62.5 26.5q36 0 63 -26.5t27 -61.5q0 -37 -26.5 -63.5t-63.5 -26.5t-63.5 26.5t-26.5 63.5zM156 1366h137l-27 -1010h-84z" />
<glyph unicode="&#x22;" horiz-adv-x="649" d="M119 1313q0 32 21 52.5t53 20.5q31 0 52 -21t21 -52l-2 -28q-4 -45 -12 -124l-8 -78q-3 -39 -21 -209h-61q-7 52 -36 358l-5 53q0 5 -0.5 12t-1 10.5t-0.5 5.5zM383 1313q0 31 21.5 52t52.5 21q32 0 52.5 -21t20.5 -52l-2 -28q-4 -45 -12 -124l-8 -78q-3 -39 -21 -209 h-61q-7 52 -36 358l-5 53q0 5 -0.5 12t-1 10.5t-0.5 5.5z" />
<glyph unicode="#" horiz-adv-x="1185" d="M49 381l27 84h229l146 436h-232l25 84h235l125 381h96l-125 -381h240l125 381h98l-129 -381h228l-23 -84h-231l-148 -436h238l-27 -84h-237l-127 -381h-99l131 381h-241l-129 -381h-97l129 381h-227zM401 465h238l147 436h-239z" />
<glyph unicode="$" horiz-adv-x="1196" d="M98 193l76 88q68 -80 166.5 -133.5t218.5 -63.5v573q-49 14 -78.5 23t-72.5 24.5t-71.5 30.5t-60.5 35.5t-56.5 46.5t-42.5 56q-36 60 -36 151q0 43 9.5 82.5t26.5 72t40.5 60.5t52 49.5t59.5 38.5t66 29q72 25 164 30v187h94v-187q246 -20 400 -190l-78 -86 q-120 146 -322 168v-516q72 -20 122 -38t105.5 -45.5t97 -65.5t68.5 -86q37 -65 37 -165q0 -236 -226 -339q-85 -39 -204 -46v-182h-94v182q-149 7 -267 64.5t-194 151.5zM264 1030q0 -26 6 -49.5t15 -41.5t25.5 -35t31 -28.5t38.5 -24t40 -19.5t44.5 -16.5t44 -13.5 t44.5 -12q4 -1 6 -2v492q-65 -5 -117.5 -23.5t-92 -51.5t-62.5 -79t-23 -96zM653 84q112 8 188 54.5t104 129.5q16 48 16 86t-10 70.5t-25.5 56.5t-42 45.5t-49.5 35.5t-58.5 28t-60 22t-62.5 19v-547z" />
<glyph unicode="%" horiz-adv-x="1474" d="M70 1049q0 113 51.5 194t137.5 118q57 25 130 25q112 0 187.5 -55.5t110.5 -147.5q24 -63 24 -134q0 -113 -52 -192.5t-139 -116.5q-59 -25 -131 -25q-110 0 -185.5 55t-110.5 145q-23 59 -23 134zM164 1049q0 -56 17.5 -103t47 -79t69.5 -52t91 -20q54 0 97.5 22 t70.5 56t43 78q16 45 16 98q0 85 -36 145.5t-98 91.5q-42 21 -93 21q-78 0 -131.5 -44.5t-77.5 -113.5q-16 -45 -16 -100zM262 0l873 1366h94l-875 -1366h-92zM764 309q0 114 52 194.5t139 118.5q57 25 130 25q111 0 187 -56t111 -148q24 -63 24 -134q0 -113 -52.5 -192 t-140.5 -116q-61 -26 -129 -26q-135 0 -231 96q-90 90 -90 238zM858 309q0 -83 36 -142.5t98 -90.5q42 -21 93 -21q78 0 131.5 43.5t77.5 111.5q17 48 17 99q0 56 -17.5 104t-46.5 80.5t-69 53.5q-39 20 -93 20q-80 0 -133 -44t-78 -113q-16 -45 -16 -101z" />
<glyph unicode="&#x26;" horiz-adv-x="1308" d="M86 348q0 42 6.5 80t20.5 70.5t30 60t39.5 52.5t46 44.5t52.5 39.5t54 34.5t56 32.5q-51 80 -81.5 155t-30.5 158q0 106 55 179.5t143 108.5q57 23 127 23q130 0 208.5 -67.5t78.5 -190.5q0 -77 -29.5 -133t-82.5 -104q-47 -43 -113 -82l-129 -72q45 -62 92 -119 q82 -94 176 -198l90 -96q103 154 156 331l98 -41q-97 -243 -180 -364q119 -119 264 -250h-160q-75 67 -174 164q-165 -189 -401 -189q-137 0 -234.5 56t-144.5 155q-33 69 -33 162zM205 354q0 -69 25 -124t65.5 -89t96.5 -53q54 -18 114 -18q178 0 323 166l-118 123 q-56 59 -84 96l-95 111q-47 59 -90 120q-41 -23 -70 -43t-63 -51t-55 -63t-35 -77.5t-14 -97.5zM393 1073q0 -65 26 -128t68 -132l112 61q114 63 161 149q24 44 24 101q0 81 -48.5 126.5t-129.5 45.5q-48 0 -88.5 -18.5t-66.5 -47.5t-41 -67q-17 -42 -17 -90z" />
<glyph unicode="'" horiz-adv-x="382" d="M119 1313q0 32 21 52.5t53 20.5q31 0 52 -21t21 -52l-2 -28q-4 -45 -12 -124l-8 -78q-3 -39 -21 -209h-61q-7 52 -36 358l-5 53q0 5 -0.5 12t-1 10.5t-0.5 5.5z" />
<glyph unicode="(" horiz-adv-x="464" d="M92 498q0 491 275 905l63 -45q-106 -211 -161.5 -409.5t-55.5 -450.5q0 -251 55.5 -448t161.5 -408l-63 -50q-275 414 -275 906z" />
<glyph unicode=")" horiz-adv-x="464" d="M35 -358q106 211 161.5 408t55.5 448q0 252 -55.5 450.5t-161.5 409.5l63 45q275 -414 275 -905q0 -492 -275 -906z" />
<glyph unicode="*" horiz-adv-x="686" d="M76 993l213 109l-213 108l39 68l200 -131l-10 239h76l-12 -239l202 131l39 -68l-215 -108l215 -109l-39 -67l-202 131l12 -240h-76l10 240l-200 -131z" />
<glyph unicode="+" horiz-adv-x="1015" d="M59 647v86h404v432h92v-432h401v-86h-401v-444h-92v444h-404z" />
<glyph unicode="," horiz-adv-x="448" d="M119 -201q44 31 79 83t40 106q-6 -2 -9 -2h-12q-37 0 -60.5 24.5t-23.5 61.5q0 35 26.5 61.5t61.5 26.5q47 0 76 -38t29 -93q0 -85 -44 -162t-104 -117z" />
<glyph unicode="-" horiz-adv-x="614" d="M61 446v99h492v-99h-492z" />
<glyph unicode="." horiz-adv-x="448" d="M133 72q0 34 28.5 61t63.5 27q36 0 63 -26.5t27 -61.5q0 -37 -26.5 -63.5t-63.5 -26.5t-64.5 26.5t-27.5 63.5z" />
<glyph unicode="/" horiz-adv-x="577" d="M0 -41l485 1448h93l-486 -1448h-92z" />
<glyph unicode="0" horiz-adv-x="1245" d="M119 682q0 218 69.5 385t200.5 255q95 64 236 64q253 0 388 -230q55 -93 85 -215.5t30 -258.5q0 -217 -70.5 -385t-200.5 -257q-95 -65 -232 -65q-256 0 -392 232q-54 91 -84 215.5t-30 259.5zM242 682q0 -185 50 -328.5t150 -217.5q74 -54 183 -54q197 0 296 194 q83 163 83 406q0 186 -49.5 328.5t-150.5 216.5q-73 53 -179 53q-202 0 -300 -193q-83 -163 -83 -405z" />
<glyph unicode="1" horiz-adv-x="630" d="M53 1049l301 317h107v-1366h-117v1206l-219 -233z" />
<glyph unicode="2" horiz-adv-x="1191" d="M115 0v96l317 263q135 114 245 232q100 108 158 211q56 100 56 199q0 131 -87 205t-224 74q-125 0 -221 -48.5t-154 -129.5l-80 74q69 96 188 153.5t267 57.5q135 0 237.5 -57t153.5 -154q39 -74 39 -175q0 -112 -56 -222q-60 -118 -154 -222.5t-226 -218.5l-277 -232 h719v-106h-901z" />
<glyph unicode="3" horiz-adv-x="1114" d="M66 203l79 69q59 -85 158 -137.5t225 -52.5q154 0 249 76t95 215q0 74 -28.5 128.5t-79.5 86.5t-115.5 47.5t-142.5 15.5q-83 0 -127 -4v111q22 -2 51 -2h76q75 0 136 16t107.5 48t73.5 79q29 50 29 117q0 96 -57 158t-146 89q-57 17 -125 17q-123 0 -206.5 -44.5 t-159.5 -129.5l-74 74q75 92 188.5 149t257.5 57t248.5 -54t156.5 -152q36 -67 36 -154q0 -140 -104 -230q-82 -71 -189 -89q93 -9 166 -62.5t114 -131.5q33 -63 33 -146q0 -140 -72.5 -229.5t-193.5 -132.5q-85 -30 -195 -30q-158 0 -277.5 62t-186.5 166z" />
<glyph unicode="4" horiz-adv-x="1107" d="M72 373v104l606 889h158v-887h200v-106h-200v-373h-117v373h-647zM193 479h526v770z" />
<glyph unicode="5" horiz-adv-x="1191" d="M152 199l77 77q66 -94 157 -144t226 -50q115 0 197 55t120 145q25 59 25 130q0 117 -54.5 195.5t-148.5 114.5q-60 23 -137 23q-106 0 -182 -33.5t-149 -99.5l-88 37v717h788v-106h-672v-535q56 55 142 91t184 36q146 0 248 -67t152 -181q36 -82 36 -188 q0 -154 -77.5 -259.5t-204.5 -150.5q-87 -31 -179 -31q-165 0 -274 57.5t-186 166.5z" />
<glyph unicode="6" horiz-adv-x="1196" d="M119 682q0 224 72 392.5t210 251.5q99 60 240 60q229 0 369 -174l-68 -84q-57 73 -126 112.5t-175 39.5q-205 0 -312 -191q-29 -52 -49.5 -117.5t-31 -139t-10.5 -152.5v-32q0 -10 2 -32q41 67 112 121t155 84q64 23 132 23q151 0 254.5 -64.5t152.5 -178.5 q33 -77 33 -189q0 -145 -73 -246.5t-190 -153.5q-84 -37 -195 -37q-85 0 -156 23t-122.5 62.5t-91.5 96.5t-65 121t-41 139q-26 123 -26 265zM246 506q11 -132 64 -231t143 -153q67 -40 163 -40q82 0 148.5 28t109.5 75.5t66 110.5q21 58 21 114q0 105 -41.5 179.5t-118 112 t-182.5 37.5q-121 0 -219 -67.5t-154 -165.5z" />
<glyph unicode="7" horiz-adv-x="1028" d="M68 1260v106h895v-82l-584 -1284h-129l573 1260h-755z" />
<glyph unicode="8" d="M121 342q0 131 104 235q43 43 105 76t131 52q-217 58 -291 207q-27 54 -27 122q0 169 141 266q58 40 136 63t166 23q55 0 106.5 -9t95.5 -25.5t82 -40t68 -54t51 -66.5q39 -66 39 -157q0 -57 -18.5 -105.5t-48 -83t-72 -63t-85.5 -46.5t-93 -31q107 -29 188 -88t123 -145 q29 -60 29 -130q0 -133 -79 -217t-203 -123q-85 -27 -183 -27q-151 0 -263 57t-166 158q-36 68 -36 152zM240 350q0 -119 104 -196q97 -72 242 -72q109 0 192 42t125 115q29 50 29 111q0 134 -142 224q-43 27 -98.5 48t-105.5 29q-92 -14 -174 -59t-130 -109 q-42 -55 -42 -133zM262 1022q0 -203 324 -268q111 22 193 69q130 74 130 199q0 95 -54.5 154.5t-142.5 86.5q-55 17 -126 17q-106 0 -183.5 -39t-114.5 -109q-26 -49 -26 -110z" />
<glyph unicode="9" horiz-adv-x="1196" d="M117 952q0 145 73 246.5t191 153.5q84 37 194 37q105 0 188.5 -34.5t139.5 -97t92 -139t56 -171.5q26 -123 26 -265q0 -225 -71.5 -393t-209.5 -251q-101 -61 -241 -61q-127 0 -215 46t-154 129l70 84q50 -64 119 -109q67 -43 180 -43q206 0 314 192q89 159 89 408v64 q-44 -68 -113.5 -121.5t-154.5 -83.5q-64 -23 -133 -23q-101 0 -182.5 30t-137 83.5t-86.5 128.5q-34 81 -34 190zM236 954q0 -159 90.5 -244t251.5 -85q50 0 98 13t88 35t75.5 52t62.5 63t48 70q-11 132 -64 231t-143 153q-67 40 -163 40q-122 0 -205.5 -58.5 t-118.5 -155.5q-20 -56 -20 -114z" />
<glyph unicode=":" horiz-adv-x="444" d="M133 72q0 34 28.5 61t63.5 27q36 0 63 -26.5t27 -61.5q0 -37 -26.5 -63.5t-63.5 -26.5t-64.5 26.5t-27.5 63.5zM133 913q0 36 27.5 63.5t64.5 27.5t63.5 -27t26.5 -64q0 -35 -27 -61.5t-63 -26.5q-35 0 -63.5 27t-28.5 61z" />
<glyph unicode=";" horiz-adv-x="448" d="M119 -199q44 31 79 83t40 106q-6 -2 -9 -2h-12q-37 0 -60.5 24.5t-23.5 61.5q0 35 26.5 61.5t61.5 26.5q48 0 76.5 -38t28.5 -95q0 -83 -44.5 -160t-103.5 -117zM133 913q0 36 27.5 63.5t64.5 27.5t63.5 -27t26.5 -64q0 -35 -27 -61.5t-63 -26.5q-35 0 -63.5 27t-28.5 61 z" />
<glyph unicode="&#x3c;" horiz-adv-x="1015" d="M59 647v76l897 465v-101l-788 -403l788 -399v-101z" />
<glyph unicode="=" horiz-adv-x="1015" d="M59 442v84h897v-84h-897zM59 842v86h897v-86h-897z" />
<glyph unicode="&#x3e;" horiz-adv-x="1015" d="M59 184v101l791 399l-791 403v101l897 -465v-76z" />
<glyph unicode="?" horiz-adv-x="950" d="M45 1171q156 215 440 215q88 0 161 -23.5t124 -66.5t80 -104q27 -57 27 -121q0 -52 -16 -97.5t-38 -76t-55 -61.5q-42 -39 -100 -79l-101 -71q-50 -37 -79 -76t-29 -94q0 -29 18.5 -57t42.5 -47l-82 -52q-84 70 -84 162q0 66 27.5 112.5t76.5 90.5q30 26 97 72t95 70 q23 20 39 37t32 40.5t24.5 52.5t8.5 62q0 77 -43.5 128.5t-112.5 75.5q-48 17 -119 17q-89 0 -158 -24.5t-114 -62.5t-88 -97zM367 72q0 35 27 61.5t63 26.5q23 0 44 -12.5t33.5 -32.5t12.5 -43q0 -37 -26.5 -63.5t-63.5 -26.5t-63.5 26.5t-26.5 63.5z" />
<glyph unicode="@" horiz-adv-x="1603" d="M72 500q0 172 68.5 317t177.5 253q106 105 252.5 171t314.5 66q145 0 264.5 -52.5t202.5 -139.5q81 -85 129.5 -205.5t48.5 -262.5q0 -159 -53.5 -275.5t-154.5 -166.5q-62 -31 -124 -31q-77 0 -127.5 50t-52.5 124l-2 12q-33 -48 -81.5 -89t-116.5 -69t-138 -28 q-143 0 -228 90.5t-85 237.5q0 113 42 207t111 164q65 67 150.5 109t185.5 42q97 0 165.5 -47.5t100.5 -122.5l27 133h100l-121 -577q-4 -28 -4 -39q0 -48 29 -80.5t74 -32.5q81 0 149 82q88 106 88 309q0 131 -44 238.5t-118 184.5q-75 78 -182.5 123.5t-240.5 45.5 q-157 0 -289.5 -62.5t-232.5 -162.5q-96 -96 -158 -229.5t-62 -284.5q0 -248 167 -415t425 -167q196 0 383 117l35 -51q-201 -129 -426 -129q-144 0 -261.5 50t-202.5 135q-84 84 -134.5 201t-50.5 257zM473 506q0 -71 26.5 -126.5t78.5 -87.5t122 -32q152 0 278 132 q34 35 58 73l66 303q-29 75 -87 122.5t-147 47.5q-158 0 -279 -134q-25 -27 -45 -59t-36.5 -69.5t-25.5 -81t-9 -88.5z" />
<glyph unicode="A" horiz-adv-x="1325" d="M31 0l559 1366h145l559 -1366h-135l-135 336h-723l-135 -336h-135zM340 442h645l-321 799z" />
<glyph unicode="B" horiz-adv-x="1259" d="M170 0v1366h561q172 0 274.5 -92t102.5 -256q0 -96 -41.5 -166.5t-109.5 -112.5q-42 -26 -89 -34q87 -12 150.5 -73t94.5 -146q22 -60 22 -117q0 -175 -105.5 -272t-286.5 -97h-573zM287 106h438q132 0 209.5 72t77.5 199q0 89 -45 153t-117 95q-51 22 -125 22h-438v-541 zM287 754h430q124 0 196 67.5t72 184.5q0 115 -73 184.5t-195 69.5h-430v-506z" />
<glyph unicode="C" horiz-adv-x="1374" d="M119 682q0 242 115 410t306 245q128 52 271 52q312 0 498 -242l-99 -64q-64 88 -168 143.5t-231 55.5q-243 0 -404 -167q-165 -171 -165 -433q0 -261 165 -432q162 -168 404 -168q127 0 231 55.5t168 143.5l101 -62q-90 -111 -214 -178q-122 -66 -286 -66 q-151 0 -276 53.5t-216 142.5q-93 91 -146.5 221t-53.5 290z" />
<glyph unicode="D" horiz-adv-x="1417" d="M170 0v1366h436q309 0 504 -202q86 -89 136 -211t50 -271q0 -230 -110.5 -392t-292.5 -237q-129 -53 -287 -53h-436zM287 106h319q200 0 336.5 95.5t193.5 255.5q38 106 38 225q0 195 -88 332t-238 200q-109 46 -242 46h-319v-1154z" />
<glyph unicode="E" horiz-adv-x="1155" d="M170 0v1366h866v-106h-749v-506h735v-107h-735v-541h749v-106h-866z" />
<glyph unicode="F" horiz-adv-x="1110" d="M170 0v1366h866v-106h-749v-506h735v-107h-735v-647h-117z" />
<glyph unicode="G" horiz-adv-x="1456" d="M119 682q0 160 54.5 289t147.5 222q89 89 214 142.5t276 53.5q116 0 214.5 -32t167.5 -81t132 -121l-88 -63q-71 84 -182 137t-244 53q-243 0 -404 -167q-165 -171 -165 -433q0 -263 165 -434q162 -168 404 -168q235 0 401 166v327h-516v105h633v-477q-92 -102 -224 -165 t-294 -63q-151 0 -276 53.5t-214 142.5q-93 93 -147.5 223t-54.5 290z" />
<glyph unicode="H" horiz-adv-x="1439" d="M170 0v1366h117v-610h866v610h117v-1366h-117v649h-866v-649h-117z" />
<glyph unicode="I" horiz-adv-x="456" d="M170 0v1366h117v-1366h-117z" />
<glyph unicode="J" horiz-adv-x="962" d="M29 143l71 90q45 -59 112 -106q64 -45 161 -45q92 0 161 39.5t105.5 110.5t36.5 163v971h117v-971q0 -152 -67.5 -253t-185.5 -141q-76 -26 -161 -26q-121 0 -204 42.5t-146 125.5z" />
<glyph unicode="K" horiz-adv-x="1200" d="M170 0v1366h117v-748l659 748h150l-582 -651l637 -715h-150l-563 643l-151 -166v-477h-117z" />
<glyph unicode="L" horiz-adv-x="991" d="M141 0v1366h119v-1260h662v-106h-781z" />
<glyph unicode="M" horiz-adv-x="1617" d="M170 0v1366h174l465 -1137l463 1137h176v-1366h-119v1219l-498 -1219h-45l-499 1219v-1219h-117z" />
<glyph unicode="N" horiz-adv-x="1431" d="M170 0v1366h119l856 -1157v1157h117v-1366h-115l-860 1174v-1174h-117z" />
<glyph unicode="O" horiz-adv-x="1564" d="M119 682q0 237 105.5 404.5t284.5 247.5q124 55 273 55q103 0 196 -27.5t162 -72t125 -104.5q84 -91 132.5 -219.5t48.5 -283.5q0 -238 -105.5 -405.5t-285.5 -246.5q-125 -55 -273 -55q-153 0 -274.5 55t-207.5 149q-84 91 -132.5 219.5t-48.5 283.5zM242 682 q0 -202 85 -345.5t232 -209.5q101 -45 223 -45q98 0 181.5 27.5t144.5 77.5t104.5 114t71.5 142q39 109 39 239q0 201 -85.5 344.5t-232.5 210.5q-99 45 -223 45q-126 0 -225.5 -46t-168.5 -124q-68 -77 -107 -187.5t-39 -242.5z" />
<glyph unicode="P" d="M170 0v1366h512q145 0 243 -66.5t141 -180.5q28 -75 28 -152q0 -134 -65.5 -229t-172.5 -139q-78 -32 -174 -32h-395v-567h-117zM287 674h383q105 0 176 47t103 128q22 57 22 118q0 131 -83.5 212t-217.5 81h-383v-586z" />
<glyph unicode="Q" horiz-adv-x="1564" d="M119 682q0 237 105.5 404.5t284.5 247.5q124 55 273 55q152 0 274.5 -55.5t208.5 -148.5q84 -91 132.5 -219.5t48.5 -283.5q0 -309 -195 -514l144 -150l-80 -73l-146 149q-163 -119 -387 -119q-294 0 -482 204q-84 91 -132.5 219.5t-48.5 283.5zM242 682 q0 -202 85 -345.5t232 -209.5q101 -45 223 -45q178 0 310 94l-211 219l82 76l211 -221q149 171 149 432q0 201 -85.5 344.5t-232.5 210.5q-99 45 -223 45q-126 0 -225.5 -46t-168.5 -124q-45 -50 -77 -114.5t-50.5 -145.5t-18.5 -170z" />
<glyph unicode="R" horiz-adv-x="1216" d="M170 0v1366h510q140 0 239.5 -62.5t144.5 -168.5q32 -75 32 -168q0 -55 -11.5 -104.5t-32 -89.5t-49.5 -73t-64.5 -57t-76.5 -40q-73 -29 -145 -30l395 -573h-141l-383 565h-301v-565h-117zM287 672h383q70 0 127.5 22.5t95 61.5t58.5 92q22 55 22 119q0 89 -38 155.5 t-106.5 102t-158.5 35.5h-383v-588z" />
<glyph unicode="S" horiz-adv-x="1189" d="M94 193l76 88q116 -132 291 -182q59 -17 137 -17q188 0 284 93q74 71 74 179q0 101 -60 156q-57 53 -144 87.5t-205 62.5q-246 59 -349 177q-61 70 -61 187q0 132 76.5 216.5t198.5 122.5q84 26 174 26q298 0 463 -193l-78 -86q-140 172 -391 172q-104 0 -181.5 -40 t-113.5 -110q-25 -48 -25 -102q0 -118 128 -180q60 -29 131 -50l150 -44q69 -20 117 -38t101 -45t92 -64.5t65 -85.5q35 -65 35 -161q0 -252 -255 -351q-93 -36 -230 -36q-162 0 -290 59.5t-210 158.5z" />
<glyph unicode="T" horiz-adv-x="1155" d="M72 1260v106h1011v-106h-446v-1260h-119v1260h-446z" />
<glyph unicode="U" horiz-adv-x="1404" d="M170 524v842h119v-840q0 -209 106 -326.5t307 -117.5q202 0 308 117.5t106 326.5v840h119v-842q0 -260 -137.5 -404.5t-395.5 -144.5q-257 0 -394.5 144t-137.5 405z" />
<glyph unicode="V" horiz-adv-x="1325" d="M31 1366h135l498 -1235l495 1235h135l-559 -1366h-145z" />
<glyph unicode="W" horiz-adv-x="1775" d="M39 1366h131l330 -1202l336 1202h106l334 -1202l330 1202h131l-389 -1366h-131l-328 1174l-328 -1174h-131z" />
<glyph unicode="X" horiz-adv-x="1320" d="M39 0l549 700l-518 666h147l442 -580l445 580h147l-518 -664l549 -702h-145l-478 616l-475 -616h-145z" />
<glyph unicode="Y" horiz-adv-x="1265" d="M31 1366h141l461 -672l461 672h141l-543 -782v-584h-119v584z" />
<glyph unicode="Z" horiz-adv-x="1189" d="M102 0v102l824 1158h-824v106h971v-100l-823 -1160h837v-106h-985z" />
<glyph unicode="[" horiz-adv-x="466" d="M76 -389v1778h356v-89h-266v-1601h266v-88h-356z" />
<glyph unicode="\" horiz-adv-x="577" d="M0 1407h92l486 -1448h-93z" />
<glyph unicode="]" horiz-adv-x="466" d="M35 -301h266v1601h-266v89h356v-1778h-356v88z" />
<glyph unicode="^" horiz-adv-x="876" d="M39 682l356 684h86l357 -684h-99l-301 600l-301 -600h-98z" />
<glyph unicode="_" horiz-adv-x="1155" d="M-6 -82h1167v-88h-1167v88z" />
<glyph unicode="`" horiz-adv-x="442" d="M0 1434h127l315 -295h-90z" />
<glyph unicode="a" horiz-adv-x="1067" d="M113 305q0 118 60 195.5t159 111.5q62 21 127 21q209 0 336 -141v200q0 109 -74 168.5t-191 59.5q-105 0 -176.5 -36.5t-134.5 -109.5l-59 74q77 83 164.5 124.5t216.5 41.5q166 0 263 -80.5t97 -237.5v-696h-106v117q-130 -142 -336 -142q-111 0 -193.5 52t-123.5 137 q-29 59 -29 141zM225 303q0 -84 44.5 -141.5t115.5 -83.5q52 -19 111 -19q97 0 173.5 36.5t125.5 99.5v217q-48 64 -124.5 100.5t-174.5 36.5q-118 0 -194.5 -68t-76.5 -178z" />
<glyph unicode="b" d="M166 0v1366h106v-537q58 82 145.5 133.5t198.5 51.5q159 0 262.5 -84.5t148.5 -222.5q32 -98 32 -213q0 -176 -69.5 -302t-193.5 -181q-81 -36 -180 -36q-109 0 -200.5 53t-143.5 130v-158h-106zM272 248q44 -73 133.5 -124.5t192.5 -51.5q65 0 120 19.5t94.5 55 t66.5 80.5t43 100q22 75 22 167q0 143 -51.5 242t-148.5 149q-64 33 -146 33q-90 0 -192 -56q-87 -48 -134 -125v-489z" />
<glyph unicode="c" horiz-adv-x="1011" d="M111 496q0 173 76 296t205 182q87 40 198 40q124 0 204.5 -43t145.5 -125l-74 -66q-31 44 -67.5 73.5t-88 47t-114.5 17.5q-133 0 -221.5 -71t-125.5 -185q-26 -80 -26 -166q0 -141 58 -242.5t159 -149.5q67 -32 156 -32q171 0 270 139l74 -66q-64 -83 -145.5 -126.5 t-204.5 -43.5q-212 0 -349 153q-130 145 -130 368z" />
<glyph unicode="d" d="M111 494q0 177 68.5 301t192.5 182q80 37 179 37q113 0 199.5 -51t144.5 -134v537h109v-1366h-109v158q-52 -78 -143.5 -130.5t-200.5 -52.5q-158 0 -261 83t-148 221q-31 94 -31 215zM223 494q0 -139 52.5 -242t147.5 -149q63 -31 146 -31q108 0 192 49.5t134 126.5v489 q-72 120 -224 166q-50 15 -102.5 15t-98 -13.5t-80 -36.5t-63 -55.5t-48 -70t-32.5 -80.5q-24 -78 -24 -168z" />
<glyph unicode="e" horiz-adv-x="1161" d="M111 496q0 170 78.5 293.5t206.5 183.5q88 41 190 41q214 0 346 -155q37 -44 64 -100t42 -125.5t15 -144.5v-28h-828q7 -131 68 -225t162 -138q69 -30 157 -30q196 0 324 137l55 -70q-151 -160 -387 -160q-87 0 -162 23.5t-131 66.5t-96.5 98t-67.5 123q-36 91 -36 210z M225 545h719q0 119 -55.5 207.5t-145.5 134.5q-68 35 -159 35q-65 0 -120.5 -19.5t-96 -54t-69.5 -77.5t-47 -95q-25 -69 -26 -131z" />
<glyph unicode="f" horiz-adv-x="542" d="M37 895v94h164v90q0 141 69 224t199 83q63 0 104.5 -16t83.5 -53l-51 -78q-54 51 -127 51q-87 0 -128.5 -56t-41.5 -155v-90h201v-94h-201v-895h-108v895h-164z" />
<glyph unicode="g" horiz-adv-x="1167" d="M111 496q0 177 68 300t193 181q80 37 179 37q113 0 199.5 -51t144.5 -134v160h109v-981q0 -207 -133 -317q-112 -92 -312 -92q-138 0 -227 36t-164 113l61 86q63 -74 136.5 -106.5t193.5 -32.5q156 0 246 80.5t90 232.5v158q-53 -79 -144 -132.5t-200 -53.5 q-159 0 -261 82.5t-148 219.5q-31 93 -31 214zM223 496q0 -139 52.5 -240.5t147.5 -147.5q66 -32 146 -32q109 0 194 51t132 129v481q-72 120 -225 166q-49 15 -101 15q-66 0 -120 -19.5t-93 -55.5t-65.5 -80.5t-43.5 -99.5q-24 -76 -24 -167z" />
<glyph unicode="h" horiz-adv-x="1105" d="M166 0v1366h106v-526q44 53 110 94.5t141 63.5q56 16 106 16q158 0 234.5 -78t76.5 -240v-696h-106v674q0 125 -58.5 184.5t-181.5 59.5q-83 0 -184 -52q-84 -43 -138 -118v-748h-106z" />
<glyph unicode="i" horiz-adv-x="438" d="M137 1227q0 33 24.5 56.5t57.5 23.5q35 0 58.5 -23t23.5 -57q0 -35 -23.5 -58.5t-58.5 -23.5q-34 0 -58 24t-24 58zM166 0v989h106v-989h-106z" />
<glyph unicode="j" horiz-adv-x="438" d="M-199 -326l47 88q67 -67 146 -67q82 0 127 46.5t45 133.5v1114h106v-1114q0 -136 -67.5 -206t-200.5 -70q-69 0 -113.5 18t-89.5 57zM137 1227q0 33 24.5 56.5t57.5 23.5q35 0 58.5 -23t23.5 -57q0 -35 -23.5 -58.5t-58.5 -23.5q-34 0 -58 24t-24 58z" />
<glyph unicode="k" horiz-adv-x="1034" d="M166 0v1366h106v-942l582 565h143l-460 -446l458 -543h-143l-395 471l-185 -174v-297h-106z" />
<glyph unicode="l" horiz-adv-x="438" d="M166 0v1366h106v-1366h-106z" />
<glyph unicode="m" horiz-adv-x="1615" d="M166 0v989h106v-149q31 49 89.5 90t125.5 65q54 19 105 19q103 0 169.5 -50.5t90.5 -136.5q73 119 225 170q51 17 103 17q270 0 270 -301v-713h-107v692q0 226 -198 226q-121 0 -231 -105q-30 -29 -52 -63v-750h-108v692q0 226 -197 226q-74 0 -161 -52 q-74 -44 -124 -118v-748h-106z" />
<glyph unicode="n" horiz-adv-x="1105" d="M166 0v989h106v-149q44 53 110 94.5t141 63.5q56 16 106 16q157 0 234 -80t77 -242v-692h-106v670q0 248 -240 248q-83 0 -184 -52q-84 -43 -138 -118v-748h-106z" />
<glyph unicode="o" d="M111 496q0 171 75 295t202 183q86 40 196 40q169 0 280 -86.5t163 -229.5q34 -93 34 -202q0 -172 -76 -297t-203 -183q-90 -41 -198 -41q-211 0 -344 153q-129 148 -129 368zM223 496q0 -137 55.5 -239t151.5 -151q67 -34 154 -34q68 0 125 20.5t98 57.5t69.5 83.5 t46.5 102.5q23 73 23 160q0 137 -55.5 237.5t-151.5 149.5q-68 35 -155 35q-54 0 -102 -14t-84.5 -37.5t-66 -57.5t-50 -72.5t-34.5 -82.5q-24 -76 -24 -158z" />
<glyph unicode="p" horiz-adv-x="1161" d="M166 -377v1366h106v-155q52 76 143.5 128t200.5 52q159 0 262.5 -83t148.5 -220q32 -98 32 -215q0 -178 -68.5 -302.5t-193.5 -181.5q-81 -37 -181 -37q-110 0 -198.5 52t-145.5 133v-537h-106zM272 252q35 -57 94.5 -100t131.5 -65q50 -15 100 -15q160 0 256 122 q90 114 90 302q0 94 -23.5 171t-68 132.5t-108.5 86.5q-66 32 -146 32q-102 0 -192 -52.5t-134 -124.5v-489z" />
<glyph unicode="q" horiz-adv-x="1161" d="M102 496q0 118 31 214.5t90 164t142 103.5t180 36q109 0 200.5 -52t143.5 -128v155h106v-1366h-106v537q-57 -81 -145.5 -133t-198.5 -52q-81 0 -149.5 23.5t-118.5 65.5t-85.5 96.5t-57.5 120.5q-32 98 -32 215zM217 496q0 -141 52 -241.5t147 -150.5q61 -32 147 -32 q107 0 191 51t135 129v489q-44 72 -134 124.5t-192 52.5q-53 0 -99 -13t-81 -36t-63 -55.5t-47.5 -69.5t-32.5 -81q-23 -78 -23 -167z" />
<glyph unicode="r" horiz-adv-x="649" d="M166 0v989h106v-170q62 83 147 137t187 54v-117q-13 4 -25 4h-28q-120 0 -232 -112q-34 -34 -49 -64v-721h-106z" />
<glyph unicode="s" horiz-adv-x="940" d="M80 133l63 78q48 -62 134.5 -103.5t185.5 -41.5q113 0 188.5 52.5t75.5 147.5q0 67 -43.5 103.5t-118.5 60.5q-31 10 -141 38t-160 50q-67 29 -116 81q-46 49 -46 140q0 97 56.5 160.5t146.5 92.5q69 22 150 22q226 0 354 -146l-59 -75q-43 60 -120.5 95.5t-174.5 35.5 q-106 0 -176 -47t-70 -134q0 -33 13.5 -58t40 -42t50 -27t58.5 -21q32 -10 95.5 -26t114 -31t89.5 -34q161 -77 161 -238q0 -104 -57.5 -171t-150.5 -97q-71 -23 -162 -23q-130 0 -221 39.5t-160 118.5z" />
<glyph unicode="t" horiz-adv-x="563" d="M23 895v94h163v271h109v-271h201v-94h-201v-688q0 -61 24.5 -98t77.5 -37q22 0 44.5 7t39 17t27.5 23l41 -82q-62 -62 -168 -62q-65 0 -109 26t-65 73.5t-21 115.5v705h-163z" />
<glyph unicode="u" horiz-adv-x="1105" d="M166 293v696h106v-672q0 -126 58 -185.5t182 -59.5q140 0 261 101q39 32 61 63v753h106v-989h-106v145q-95 -109 -252 -155q-51 -15 -105 -15q-158 0 -234.5 78t-76.5 240z" />
<glyph unicode="v" horiz-adv-x="985" d="M14 989h119l361 -864l356 864h121l-418 -989h-121z" />
<glyph unicode="w" horiz-adv-x="1472" d="M35 989h115l262 -839l278 839h92l279 -839l262 839h115l-322 -989h-102l-277 846l-278 -846h-103z" />
<glyph unicode="x" horiz-adv-x="980" d="M35 0l391 508l-369 481h127l308 -407l305 407h127l-369 -481l391 -508h-127l-327 436l-330 -436h-127z" />
<glyph unicode="y" horiz-adv-x="985" d="M14 989h119l361 -864l356 864h121l-512 -1206q-78 -184 -252 -184q-58 0 -107 14l19 98q35 -16 86 -16q62 0 93.5 28.5t57.5 92.5l78 176z" />
<glyph unicode="z" horiz-adv-x="960" d="M115 0v88l585 807h-585v94h723v-86l-592 -809h600v-94h-731z" />
<glyph unicode="{" horiz-adv-x="509" d="M12 459v82q34 0 59 21.5t36.5 53.5t11.5 70v449q0 85 39.5 145.5t105.5 89.5q43 19 84 19h127v-89h-127q-60 0 -99.5 -49t-39.5 -116v-455q0 -139 -92 -180q92 -41 92 -181v-454q0 -66 40 -116t99 -50h127v-88h-127q-76 0 -129.5 41.5t-80.5 106.5q-19 45 -19 106v448 q0 60 -28 103t-79 43z" />
<glyph unicode="|" horiz-adv-x="425" d="M170 -41v1448h88v-1448h-88z" />
<glyph unicode="}" horiz-adv-x="509" d="M35 -301h127q59 0 98 49.5t39 116.5v454q0 139 92 181q-92 42 -92 180v455q0 67 -38.5 116t-98.5 49h-127v89h127q74 0 128.5 -43.5t81.5 -106.5q19 -45 19 -104v-449q0 -59 28 -102t79 -43v-82q-51 0 -79 -43t-28 -103v-448q0 -86 -39.5 -147t-105.5 -90 q-38 -17 -84 -17h-127v88z" />
<glyph unicode="~" horiz-adv-x="1021" d="M57 887q27 334 153 436q48 39 120 39q50 0 88 -20t60 -51.5t41.5 -73.5t32 -81.5t32 -81t40.5 -66.5q25 -30 68 -30q82 0 125 108q44 110 62 300l88 -10q-9 -79 -18 -133t-26 -117.5t-44.5 -111t-65.5 -78.5q-48 -39 -121 -39q-50 0 -88 20t-60 51t-40.5 73t-31 81 t-32 80t-41.5 66q-27 30 -69 30q-81 0 -125 -108t-60 -298z" />
<glyph unicode="&#xa1;" horiz-adv-x="448" d="M133 920q0 35 27.5 61.5t62.5 26.5q36 0 63 -26.5t27 -61.5q0 -37 -26.5 -64t-63.5 -27q-36 0 -63 27.5t-27 63.5zM156 -377l26 1010h84l27 -1010h-137z" />
<glyph unicode="&#xa2;" horiz-adv-x="1011" d="M111 496q0 158 65.5 276t176.5 181q80 45 173 57v147h90v-143q112 -4 187 -47t137 -121l-74 -66q-47 64 -106 98.5t-144 39.5v-846q154 9 250 139l74 -66q-61 -79 -136.5 -122.5t-187.5 -47.5v-180h-90v185q-147 18 -243.5 104.5t-142.5 221.5q-29 86 -29 190zM223 496 q0 -126 46.5 -220.5t128.5 -148.5q56 -37 128 -49v833q-108 -18 -178.5 -88.5t-103.5 -177.5q-21 -69 -21 -149z" />
<glyph unicode="&#xa3;" horiz-adv-x="1032" d="M37 547v86h256l-65 70q-72 75 -107 174q-19 54 -19 116q0 84 35 154t91 122q127 117 317 117q89 0 166.5 -29t132 -78t86.5 -114l-94 -59q-35 77 -109.5 127.5t-173.5 50.5q-108 0 -184 -45t-115 -124q-27 -54 -27 -124q0 -43 9.5 -82t24 -67t36 -58t41 -51.5t44 -49.5 t40.5 -50h309v-86h-258q21 -48 21 -109q0 -41 -9.5 -78.5t-24.5 -66t-37.5 -55.5t-44.5 -46.5t-50 -39.5q54 18 110 18q33 0 65.5 -8t46.5 -14t51 -23q4 -2 19 -9t20.5 -9.5t19 -8t22 -7.5t21.5 -5.5t25.5 -4.5t25.5 -1q59 0 118.5 25t85.5 59l56 -96q-104 -97 -264 -97 q-56 0 -97.5 11t-95 37t-72.5 33q-42 16 -102 16q-32 0 -63.5 -6.5t-68 -22.5t-53.5 -24t-57 -29l-45 98q146 63 218 152q73 90 73 186q0 62 -33 125h-317z" />
<glyph unicode="&#xa4;" horiz-adv-x="1413" d="M72 496v84h96q-6 50 -6 102q0 54 6 106h-96v84h112q43 176 157.5 299t281.5 181q107 37 231 37q164 0 288.5 -65.5t209.5 -176.5l-99 -64q-64 88 -168 143.5t-231 55.5q-157 0 -274 -65.5t-192 -174.5q-52 -76 -79 -170h668v-84h-684q-8 -50 -8 -106q0 -53 6 -102h686 v-84h-668q40 -140 133 -239t227 -145q87 -30 185 -30q127 0 231 55.5t168 143.5l101 -62q-90 -111 -214 -178q-122 -66 -286 -66q-197 0 -343.5 83.5t-237.5 222.5q-62 95 -91 215h-110z" />
<glyph unicode="&#xa5;" horiz-adv-x="1265" d="M31 1366h141l461 -672l461 672h141l-483 -696h471v-86h-531v-242h531v-84h-531v-258h-119v258h-528v84h528v242h-528v86h469z" />
<glyph unicode="&#xa6;" horiz-adv-x="425" d="M170 -41v647h88v-647h-88zM170 760v647h88v-647h-88z" />
<glyph unicode="&#xa7;" horiz-adv-x="944" d="M80 -8l63 74q53 -66 133.5 -107t184.5 -41q73 0 132.5 22t96.5 69.5t37 113.5q0 29 -9.5 53.5t-24 41.5t-37.5 31.5t-43 23.5t-48 19q-36 13 -144 40.5t-157 49.5q-75 33 -118.5 84t-43.5 136q0 57 21 103t57.5 77t79.5 51.5t94 32.5q-113 35 -182 90q-70 56 -70 160 q0 96 56 158.5t145 90.5q69 22 152 22q117 0 207 -40.5t145 -107.5l-57 -68q-47 60 -123.5 96t-169.5 36q-67 0 -122 -21t-90.5 -64.5t-35.5 -103.5q0 -27 10 -49.5t24 -37.5t37.5 -28t43 -20.5t47.5 -15.5q33 -10 96 -25.5t113.5 -30.5t89.5 -33q75 -36 118 -92t43 -147 q0 -180 -196 -260q45 -17 78 -36.5t61 -48.5t42.5 -69.5t14.5 -93.5q0 -74 -28.5 -131.5t-80 -92t-117 -52t-144.5 -17.5q-197 0 -316 98q-29 24 -65 60zM209 608q0 -48 27.5 -79t72.5 -54q9 -5 20 -9.5t20 -8t22.5 -8l21 -7t24 -7t22.5 -6t24.5 -6t23 -6t25 -6t23.5 -5.5 q92 40 140 91q50 53 50 132q0 28 -8.5 52.5t-20.5 42t-34 33.5t-39.5 25.5t-47.5 20t-47 15.5t-49 13q-7 2 -10 3q-152 -39 -206 -96t-54 -130z" />
<glyph unicode="&#xa8;" horiz-adv-x="536" d="M-16 1231q0 30 22.5 53t52.5 23t53 -22.5t23 -53.5t-23 -53.5t-53 -22.5t-52.5 23t-22.5 53zM401 1231q0 30 23 53t53 23t53 -23t23 -53t-23 -53t-53 -23t-53 23t-23 53z" />
<glyph unicode="&#xa9;" horiz-adv-x="1593" d="M90 684q0 293 207 500q93 93 221 150t279 57q152 0 279 -57t220 -150q207 -207 207 -500q0 -152 -57 -279.5t-150 -220.5t-220 -150t-279 -57q-151 0 -279.5 57.5t-220.5 149.5q-93 93 -150 220.5t-57 279.5zM147 684q0 -138 53 -256t138 -203t202.5 -137.5t256.5 -52.5 q140 0 256 52t202 138t138.5 202.5t52.5 256.5t-52.5 256.5t-138.5 202.5t-202 138t-256 52q-139 0 -256.5 -52.5t-202.5 -137.5q-86 -86 -138.5 -203t-52.5 -256zM373 688q0 65 17 125t44 104.5t64 82.5q121 124 301 124q186 0 297 -133l-45 -45q-38 49 -107 83t-145 34 q-119 0 -202.5 -61.5t-126.5 -159.5q-30 -69 -30 -156q0 -125 62.5 -216t160.5 -134q66 -29 136 -29q76 0 144.5 34.5t107.5 84.5l45 -45q-114 -135 -297 -135q-73 0 -137 21t-112 58.5t-83.5 84.5t-59.5 103q-34 80 -34 175z" />
<glyph unicode="&#xaa;" horiz-adv-x="768" d="M94 866q0 97 65 154t165 57q140 0 225 -90v125q0 68 -50 105.5t-124 37.5q-129 0 -205 -98l-45 57q51 55 112.5 84t147.5 29q115 0 182.5 -54t67.5 -161v-444h-86v75q-86 -92 -225 -92q-73 0 -128.5 34.5t-81.5 89.5q-20 42 -20 91zM182 866q0 -69 49.5 -111t124.5 -42 q61 0 111 23.5t82 62.5v133q-31 38 -81.5 61t-111.5 23q-75 0 -124.5 -41t-49.5 -109z" />
<glyph unicode="&#xab;" horiz-adv-x="823" d="M61 498l328 362h117l-328 -362l328 -369h-117zM317 498l328 362h117l-328 -362l328 -369h-117z" />
<glyph unicode="&#xac;" horiz-adv-x="1021" d="M59 842v86h897v-486h-88v400h-809z" />
<glyph unicode="&#xad;" horiz-adv-x="614" d="M61 446v99h492v-99h-492z" />
<glyph unicode="&#xae;" horiz-adv-x="1011" d="M72 952q0 145 73.5 247.5t191.5 153.5q76 33 169 33q145 0 247 -73t153 -191q34 -78 34 -170q0 -178 -126 -307q-56 -57 -135 -92t-173 -35q-143 0 -247 74.5t-154 190.5q-33 76 -33 169zM127 952q0 -153 111 -267q49 -50 117.5 -81t150.5 -31q125 0 215 65.5t134 167.5 q30 69 30 146q0 126 -65 216t-167 134q-67 29 -147 29q-126 0 -215.5 -64t-133.5 -166q-30 -69 -30 -149zM342 702v498h203q65 0 109 -42.5t44 -108.5q0 -53 -26.5 -89.5t-68.5 -51.5q-20 -7 -32 -7l134 -199h-78l-129 197h-95v-197h-61zM403 958h142q35 0 62.5 27.5 t27.5 63.5q0 37 -27.5 65.5t-62.5 28.5h-142v-185z" />
<glyph unicode="&#xaf;" horiz-adv-x="743" d="M0 1210v78h743v-78h-743z" />
<glyph unicode="&#xb0;" horiz-adv-x="577" d="M51 1147q0 79 40 135.5t104 84.5q42 19 92 19q78 0 136.5 -41.5t84.5 -104.5q18 -44 18 -93q0 -54 -20 -98.5t-52 -73t-74 -45.5q-46 -19 -93 -19q-78 0 -134.5 40.5t-82.5 103.5q-19 46 -19 92zM131 1147q0 -66 45 -111t110.5 -45t112.5 45.5t47 110.5t-47 112.5 t-112 47.5t-110.5 -47t-45.5 -113z" />
<glyph unicode="&#xb1;" horiz-adv-x="1015" d="M59 0v84h897v-84h-897zM59 662v83h404v435h92v-435h401v-83h-401v-447h-92v447h-404z" />
<glyph unicode="&#xb2;" horiz-adv-x="786" d="M106 862v72l200 149q86 67 147 127.5t101 127.5q34 58 34 116q0 78 -53.5 120t-137.5 42q-51 0 -96.5 -14t-79 -38t-55.5 -55l-55 58q43 57 120 92t168 35q87 0 154 -34.5t100 -93.5q25 -45 25 -108q0 -68 -34 -132q-37 -69 -94.5 -130.5t-136.5 -125.5 q-74 -60 -171 -130h440v-78h-576z" />
<glyph unicode="&#xb3;" horiz-adv-x="786" d="M94 981l53 57q86 -112 240 -112q91 0 148 40.5t57 118.5q0 84 -63.5 123t-161.5 39h-48q-16 0 -30 -2v78q14 -2 29 -2h49q93 0 153 35.5t60 113.5q0 70 -58 108t-139 38q-77 0 -129.5 -26t-97.5 -77l-52 56q107 125 285 125q92 0 161 -32.5t100 -92.5q22 -42 22 -92 q0 -81 -52 -129.5t-131 -61.5q57 -3 104 -35.5t73 -79.5q20 -36 20 -88q0 -112 -83.5 -173.5t-213.5 -61.5q-98 0 -176.5 36.5t-118.5 96.5z" />
<glyph unicode="&#xb4;" horiz-adv-x="442" d="M0 1139l315 295h127l-352 -295h-90z" />
<glyph unicode="&#xb5;" horiz-adv-x="1105" d="M166 -377v1366h106v-672q0 -126 59 -187.5t181 -61.5q136 0 261 104q37 31 61 64v753h106v-989h-106v145q-95 -109 -252 -155q-51 -15 -105 -15q-127 0 -205 52v-404h-106z" />
<glyph unicode="&#xb6;" horiz-adv-x="919" d="M55 1014q0 115 60.5 199.5t154.5 124.5q65 28 138 28h346v-1571h-78v1493h-191v-1493h-77v867q-117 0 -201 60.5t-124 154.5q-28 65 -28 137z" />
<glyph unicode="&#xb7;" horiz-adv-x="448" d="M135 502q0 35 27.5 61.5t62.5 26.5q36 0 63 -26.5t27 -61.5q0 -37 -26.5 -63.5t-63.5 -26.5t-63.5 26.5t-26.5 63.5z" />
<glyph unicode="&#xb8;" horiz-adv-x="405" d="M0 -328l35 66q71 -57 162 -57q53 0 93 24t40 68q0 38 -22 60t-60 22q-51 0 -84 -37l-55 32l61 173h78l-53 -138q34 23 75 23q60 0 98 -37.5t38 -97.5q0 -73 -61.5 -116.5t-145.5 -43.5q-57 0 -112.5 16.5t-86.5 42.5z" />
<glyph unicode="&#xb9;" horiz-adv-x="438" d="M35 1479l198 202h82v-819h-94v699l-131 -142z" />
<glyph unicode="&#xba;" horiz-adv-x="829" d="M90 989q0 112 52 192t139 119q60 27 133 27q112 0 191 -57t112 -149q22 -62 22 -132q0 -113 -52 -192.5t-139 -118.5q-60 -27 -134 -27q-112 0 -188 57t-112 150q-24 61 -24 131zM182 989q0 -86 35.5 -148.5t97.5 -92.5q43 -21 99 -21q111 0 173 73t62 189q0 87 -36 148 t-100 92q-41 20 -99 20q-109 0 -170.5 -73t-61.5 -187z" />
<glyph unicode="&#xbb;" horiz-adv-x="823" d="M61 129l328 369l-328 362h117l328 -362l-328 -369h-117zM317 129l328 369l-328 362h117l328 -362l-328 -369h-117z" />
<glyph unicode="&#xbc;" horiz-adv-x="1519" d="M35 1163l198 203h82v-819h-94v698l-131 -141zM197 0l872 1366h94l-874 -1366h-92zM821 219v72l367 528h125v-524h123v-76h-123v-219h-90v219h-402zM915 295h308v440z" />
<glyph unicode="&#xbd;" horiz-adv-x="1599" d="M35 1163l198 203h82v-819h-94v698l-131 -141zM197 0l872 1366h94l-874 -1366h-92zM920 0v72l199 149q87 68 147.5 127.5t100.5 127.5q34 58 34 116q0 52 -26 89.5t-68 55t-97 17.5q-76 0 -136.5 -29.5t-94.5 -77.5l-55 58q43 57 120 91.5t168 34.5q89 0 155 -34t99 -94 q25 -45 25 -107q0 -68 -34 -132q-26 -48 -64.5 -95t-77 -83.5t-89.5 -77.5q-74 -60 -171 -130h440v-78h-575z" />
<glyph unicode="&#xbe;" horiz-adv-x="1759" d="M94 666l53 57q39 -51 100.5 -82t139.5 -31q91 0 148 41t57 119q0 43 -18 75t-50 50.5t-71.5 27.5t-85.5 9h-48q-16 0 -30 -2v78q14 -2 29 -2h49q45 0 81.5 7.5t67 24.5t47.5 46.5t17 70.5q0 47 -29 81t-72 49t-96 15t-95.5 -13t-72 -34t-59.5 -55l-52 55q107 125 285 125 q62 0 113 -14t89 -42.5t59 -68.5q22 -42 22 -92q0 -81 -52 -129t-131 -61q23 -1 45.5 -8t42 -18t36.5 -25t30 -30.5t23 -33.5q20 -36 20 -88q0 -75 -40.5 -129.5t-106.5 -80.5t-150 -26q-66 0 -124.5 17.5t-101 47t-69.5 69.5zM436 0l873 1366h94l-875 -1366h-92zM1061 219 v72l366 528h125v-524h123v-76h-123v-219h-90v219h-401zM1155 295h307v440z" />
<glyph unicode="&#xbf;" horiz-adv-x="802" d="M74 -86q0 40 8 75.5t24.5 65t33.5 52.5t45 46.5t47.5 38t50.5 36.5l100 71q50 37 79.5 76t29.5 94q0 29 -18 56t-44 46l82 52q42 -34 64 -71t22 -91q0 -66 -28 -113.5t-76 -89.5q-31 -27 -89.5 -66.5t-104 -77.5t-74.5 -81.5t-29 -108.5q0 -102 78 -160.5t198 -58.5 q67 0 122 12.5t97.5 38t75 57t63.5 74.5l74 -75q-156 -215 -440 -215q-133 0 -227.5 51t-137.5 143q-26 55 -26 123zM403 918q0 36 28 63t65 27q36 0 63 -27t27 -63q0 -35 -27 -62t-63 -27t-64.5 27t-28.5 62z" />
<glyph unicode="&#xc0;" horiz-adv-x="1325" d="M31 0l559 1366h145l559 -1366h-135l-135 336h-723l-135 -336h-135zM340 442h645l-321 799zM344 1786h127l315 -295h-90z" />
<glyph unicode="&#xc1;" horiz-adv-x="1325" d="M31 0l559 1366h145l559 -1366h-135l-135 336h-723l-135 -336h-135zM340 442h645l-321 799zM543 1491l315 295h127l-352 -295h-90z" />
<glyph unicode="&#xc2;" horiz-adv-x="1325" d="M31 0l559 1366h145l559 -1366h-135l-135 336h-723l-135 -336h-135zM340 442h645l-321 799zM410 1491l198 295h111l203 -295h-82l-176 231l-172 -231h-82z" />
<glyph unicode="&#xc3;" horiz-adv-x="1325" d="M31 0l559 1366h145l559 -1366h-135l-135 336h-723l-135 -336h-135zM340 442h645l-321 799zM350 1499q0 187 109 253q36 22 82 22q37 0 66.5 -18t43 -36t34.5 -51q2 -4 14.5 -26t19 -30t19 -22.5t27 -20t32.5 -5.5q48 0 79 46t31 150h72q0 -89 -27.5 -155.5t-80.5 -97.5 q-36 -21 -83 -21q-36 0 -66 17.5t-44 36t-34 50.5q-30 48 -47 72q-24 33 -65 33q-47 0 -78 -46q-32 -47 -32 -151h-72z" />
<glyph unicode="&#xc4;" horiz-adv-x="1325" d="M31 0l559 1366h145l559 -1366h-135l-135 336h-723l-135 -336h-135zM340 442h645l-321 799zM379 1575q0 31 23 53.5t53 22.5t52.5 -23t22.5 -53t-22.5 -53t-52.5 -23t-53 22.5t-23 53.5zM797 1575q0 30 22.5 53t52.5 23t53 -22.5t23 -53.5t-23 -53.5t-53 -22.5t-52.5 23 t-22.5 53z" />
<glyph unicode="&#xc5;" horiz-adv-x="1325" d="M31 0l559 1366h145l559 -1366h-135l-135 336h-723l-135 -336h-135zM340 442h645l-321 799zM469 1614q0 82 57.5 139t139.5 57q63 0 110.5 -34t68.5 -85q15 -36 15 -77q0 -65 -34 -112t-86 -69q-38 -16 -74 -16q-64 0 -111.5 34.5t-70.5 86.5q-15 34 -15 76zM535 1614 q0 -53 39 -92t92 -39q52 0 90.5 39t38.5 92t-38.5 92t-90.5 39q-35 0 -65 -18t-48 -48t-18 -65z" />
<glyph unicode="&#xc6;" horiz-adv-x="1923" d="M29 0l862 1366h909v-106h-747v-506h733v-107h-733v-541h747v-106h-866v336h-561l-209 -336h-135zM432 442h502v799z" />
<glyph unicode="&#xc7;" horiz-adv-x="1374" d="M119 682q0 99 20.5 188t58 160t90 130.5t115.5 103t137 73.5q128 52 271 52q164 0 288.5 -65.5t209.5 -176.5l-99 -64q-64 88 -168 143.5t-231 55.5q-126 0 -228 -45.5t-176 -121.5q-50 -52 -85.5 -114.5t-57.5 -145t-22 -173.5q0 -261 165 -432q162 -168 404 -168 q127 0 231 55.5t168 143.5l101 -62q-194 -236 -486 -244l-30 -81q32 22 75 22q60 0 98 -37.5t38 -97.5q0 -73 -61.5 -116.5t-145.5 -43.5q-56 0 -112.5 17t-86.5 43l35 65q71 -57 162 -57q53 0 93 24t40 68q0 38 -22 60t-60 22q-51 0 -84 -37l-55 33l43 118 q-139 11 -254 67.5t-198 145.5q-84 90 -132.5 215t-48.5 277z" />
<glyph unicode="&#xc8;" horiz-adv-x="1155" d="M170 0v1366h866v-106h-749v-506h735v-107h-735v-541h749v-106h-866zM283 1786h127l315 -295h-90z" />
<glyph unicode="&#xc9;" horiz-adv-x="1155" d="M170 0v1366h866v-106h-749v-506h735v-107h-735v-541h749v-106h-866zM481 1491l316 295h127l-353 -295h-90z" />
<glyph unicode="&#xca;" horiz-adv-x="1155" d="M170 0v1366h866v-106h-749v-506h735v-107h-735v-541h749v-106h-866zM344 1491l199 295h110l203 -295h-82l-176 231l-172 -231h-82z" />
<glyph unicode="&#xcb;" horiz-adv-x="1155" d="M170 0v1366h866v-106h-749v-506h735v-107h-735v-541h749v-106h-866zM315 1575q0 30 23 53t53 23t53 -23t23 -53t-23 -53t-53 -23t-53 23t-23 53zM733 1575q0 30 23 53t53 23t53 -23t23 -53t-23 -53t-53 -23t-53 23t-23 53z" />
<glyph unicode="&#xcc;" horiz-adv-x="456" d="M-90 1786h127l315 -295h-90zM170 0v1366h117v-1366h-117z" />
<glyph unicode="&#xcd;" horiz-adv-x="456" d="M109 1491l315 295h127l-352 -295h-90zM170 0v1366h117v-1366h-117z" />
<glyph unicode="&#xce;" horiz-adv-x="456" d="M-25 1491l199 295h111l202 -295h-81l-177 231l-172 -231h-82zM170 0v1366h117v-1366h-117z" />
<glyph unicode="&#xcf;" horiz-adv-x="456" d="M-55 1575q0 30 22.5 53t52.5 23t53 -22.5t23 -53.5t-23 -53.5t-53 -22.5t-52.5 23t-22.5 53zM170 0v1366h117v-1366h-117zM362 1575q0 30 23 53t53 23t53 -22.5t23 -53.5t-23 -53.5t-53 -22.5t-53 23t-23 53z" />
<glyph unicode="&#xd0;" horiz-adv-x="1476" d="M23 631v94h206v641h437q308 0 503 -202q187 -193 187 -482q0 -149 -50.5 -272t-136.5 -211q-196 -199 -503 -199h-437v631h-206zM346 106h320q200 0 336 95.5t193 255.5q38 106 38 225q0 195 -88 332t-238 200q-109 46 -241 46h-320v-535h369v-94h-369v-525z" />
<glyph unicode="&#xd1;" horiz-adv-x="1431" d="M170 0v1366h119l856 -1157v1157h117v-1366h-115l-860 1174v-1174h-117zM397 1499q0 88 28 154.5t81 98.5q36 22 82 22q28 0 50.5 -8.5t40.5 -26.5t28 -31.5t25 -38.5q4 -6 13 -22t14 -24t15.5 -21t19.5 -20t22 -12t28 -5q48 0 79 46t31 150h72q0 -88 -27 -155t-80 -98 q-36 -21 -83 -21q-28 0 -51 8.5t-40.5 26t-28 31.5t-25.5 38q-29 48 -47 72q-24 33 -64 33q-48 0 -79 -46q-32 -47 -32 -151h-72z" />
<glyph unicode="&#xd2;" horiz-adv-x="1564" d="M119 682q0 237 105.5 404.5t284.5 247.5q124 55 273 55q103 0 196 -27.5t162 -72t125 -104.5q84 -91 132.5 -219.5t48.5 -283.5q0 -238 -105.5 -405.5t-285.5 -246.5q-125 -55 -273 -55q-153 0 -274.5 55t-207.5 149q-84 91 -132.5 219.5t-48.5 283.5zM242 682 q0 -202 85 -345.5t232 -209.5q101 -45 223 -45q98 0 181.5 27.5t144.5 77.5t104.5 114t71.5 142q39 109 39 239q0 201 -85.5 344.5t-232.5 210.5q-99 45 -223 45q-126 0 -225.5 -46t-168.5 -124q-68 -77 -107 -187.5t-39 -242.5zM471 1786h127l315 -295h-90z" />
<glyph unicode="&#xd3;" horiz-adv-x="1564" d="M119 682q0 237 105.5 404.5t284.5 247.5q124 55 273 55q103 0 196 -27.5t162 -72t125 -104.5q84 -91 132.5 -219.5t48.5 -283.5q0 -238 -105.5 -405.5t-285.5 -246.5q-125 -55 -273 -55q-153 0 -274.5 55t-207.5 149q-84 91 -132.5 219.5t-48.5 283.5zM242 682 q0 -202 85 -345.5t232 -209.5q101 -45 223 -45q98 0 181.5 27.5t144.5 77.5t104.5 114t71.5 142q39 109 39 239q0 201 -85.5 344.5t-232.5 210.5q-99 45 -223 45q-126 0 -225.5 -46t-168.5 -124q-68 -77 -107 -187.5t-39 -242.5zM664 1491l315 295h127l-352 -295h-90z" />
<glyph unicode="&#xd4;" horiz-adv-x="1564" d="M119 682q0 237 105.5 404.5t284.5 247.5q124 55 273 55q103 0 196 -27.5t162 -72t125 -104.5q84 -91 132.5 -219.5t48.5 -283.5q0 -238 -105.5 -405.5t-285.5 -246.5q-125 -55 -273 -55q-153 0 -274.5 55t-207.5 149q-84 91 -132.5 219.5t-48.5 283.5zM242 682 q0 -202 85 -345.5t232 -209.5q101 -45 223 -45q98 0 181.5 27.5t144.5 77.5t104.5 114t71.5 142q39 109 39 239q0 201 -85.5 344.5t-232.5 210.5q-99 45 -223 45q-126 0 -225.5 -46t-168.5 -124q-68 -77 -107 -187.5t-39 -242.5zM530 1491l199 295h111l202 -295h-81 l-177 231l-172 -231h-82z" />
<glyph unicode="&#xd5;" horiz-adv-x="1564" d="M119 682q0 237 105.5 404.5t284.5 247.5q124 55 273 55q103 0 196 -27.5t162 -72t125 -104.5q84 -91 132.5 -219.5t48.5 -283.5q0 -238 -105.5 -405.5t-285.5 -246.5q-125 -55 -273 -55q-153 0 -274.5 55t-207.5 149q-84 91 -132.5 219.5t-48.5 283.5zM242 682 q0 -202 85 -345.5t232 -209.5q101 -45 223 -45q98 0 181.5 27.5t144.5 77.5t104.5 114t71.5 142q39 109 39 239q0 201 -85.5 344.5t-232.5 210.5q-99 45 -223 45q-126 0 -225.5 -46t-168.5 -124q-68 -77 -107 -187.5t-39 -242.5zM469 1499q0 187 109 253q36 22 81 22 q28 0 51 -8.5t41 -26.5t28 -31.5t25 -38.5q30 -48 47 -72q23 -32 64 -32q48 0 79 46q32 47 32 150h72q0 -88 -27.5 -155t-80.5 -98q-36 -21 -83 -21q-36 0 -66 17.5t-44 36t-34 50.5q-29 48 -47 72q-24 33 -65 33q-48 0 -79 -46t-31 -151h-72z" />
<glyph unicode="&#xd6;" horiz-adv-x="1564" d="M119 682q0 237 105.5 404.5t284.5 247.5q124 55 273 55q103 0 196 -27.5t162 -72t125 -104.5q84 -91 132.5 -219.5t48.5 -283.5q0 -238 -105.5 -405.5t-285.5 -246.5q-125 -55 -273 -55q-153 0 -274.5 55t-207.5 149q-84 91 -132.5 219.5t-48.5 283.5zM242 682 q0 -202 85 -345.5t232 -209.5q101 -45 223 -45q98 0 181.5 27.5t144.5 77.5t104.5 114t71.5 142q39 109 39 239q0 201 -85.5 344.5t-232.5 210.5q-99 45 -223 45q-126 0 -225.5 -46t-168.5 -124q-68 -77 -107 -187.5t-39 -242.5zM496 1575q0 30 22.5 53t52.5 23t53 -22.5 t23 -53.5t-23 -53.5t-53 -22.5t-52.5 23t-22.5 53zM913 1575q0 30 23 53t53 23t53 -23t23 -53t-23 -53t-53 -23t-53 23t-23 53z" />
<glyph unicode="&#xd7;" horiz-adv-x="1015" d="M137 373l312 311l-312 311l62 60l309 -312l311 312l60 -60l-312 -311l312 -311l-60 -60l-311 312l-309 -312z" />
<glyph unicode="&#xd8;" horiz-adv-x="1564" d="M119 682q0 237 105.5 404.5t284.5 247.5q124 55 273 55q178 0 336 -89l41 66h107l-74 -115q57 -45 103 -103t80 -129t52.5 -157t18.5 -180q0 -238 -105.5 -405.5t-285.5 -246.5q-125 -55 -273 -55q-190 0 -344 91l-41 -66h-104l74 115q-115 93 -181.5 237.5t-66.5 329.5z M242 682q0 -151 49.5 -271.5t136.5 -197.5l631 995q-122 74 -277 74q-126 0 -225.5 -46t-168.5 -124q-68 -77 -107 -187.5t-39 -242.5zM498 160q125 -78 284 -78q98 0 181.5 27.5t144.5 77.5t104.5 114t71.5 142q39 109 39 239q0 102 -24.5 193t-66.5 160t-101 120z" />
<glyph unicode="&#xd9;" horiz-adv-x="1404" d="M170 524v842h119v-840q0 -209 106 -326.5t307 -117.5q202 0 308 117.5t106 326.5v840h119v-842q0 -260 -137.5 -404.5t-395.5 -144.5q-257 0 -394.5 144t-137.5 405zM387 1786h127l315 -295h-90z" />
<glyph unicode="&#xda;" horiz-adv-x="1404" d="M170 524v842h119v-840q0 -209 106 -326.5t307 -117.5q202 0 308 117.5t106 326.5v840h119v-842q0 -260 -137.5 -404.5t-395.5 -144.5q-257 0 -394.5 144t-137.5 405zM580 1491l315 295h127l-352 -295h-90z" />
<glyph unicode="&#xdb;" horiz-adv-x="1404" d="M170 524v842h119v-840q0 -209 106 -326.5t307 -117.5q202 0 308 117.5t106 326.5v840h119v-842q0 -260 -137.5 -404.5t-395.5 -144.5q-257 0 -394.5 144t-137.5 405zM455 1491l198 295h111l203 -295h-82l-176 231l-172 -231h-82z" />
<glyph unicode="&#xdc;" horiz-adv-x="1404" d="M170 524v842h119v-840q0 -209 106 -326.5t307 -117.5q202 0 308 117.5t106 326.5v840h119v-842q0 -260 -137.5 -404.5t-395.5 -144.5q-257 0 -394.5 144t-137.5 405zM420 1575q0 31 23 53.5t53 22.5t52.5 -23t22.5 -53t-22.5 -53t-52.5 -23t-53 22.5t-23 53.5zM838 1575 q0 30 22.5 53t52.5 23t53 -22.5t23 -53.5t-23 -53.5t-53 -22.5t-52.5 23t-22.5 53z" />
<glyph unicode="&#xdd;" horiz-adv-x="1265" d="M31 1366h141l461 -672l461 672h141l-543 -782v-584h-119v584zM520 1491l316 295h127l-353 -295h-90z" />
<glyph unicode="&#xde;" d="M170 0v1366h117v-254h395q144 0 242.5 -68t141.5 -181q28 -75 28 -152q0 -134 -65.5 -228t-172.5 -138q-78 -32 -174 -32h-395v-313h-117zM287 420h383q104 0 175.5 46.5t103.5 127.5q22 55 22 117q0 67 -21.5 122t-61 93t-95.5 59t-123 21h-383v-586z" />
<glyph unicode="&#xdf;" horiz-adv-x="1183" d="M166 0v1042q0 117 57 198t152 120q66 27 147 27q69 0 128.5 -17t104 -49t70.5 -76q27 -45 27 -100q0 -44 -15 -80t-44 -63t-56 -45t-66 -41t-59 -37q-18 -13 -31.5 -25.5t-26 -30t-19.5 -39t-7 -45.5q0 -27 9.5 -48.5t23.5 -36t37 -27t42.5 -20t46.5 -15.5 q13 -4 128.5 -34t166.5 -53q159 -73 159 -237q0 -102 -56 -169t-147 -99q-72 -25 -164 -25q-86 0 -157.5 22t-118.5 54t-97 82l64 78q49 -65 128 -105t181 -40q90 0 154 33t92 93q16 35 16 74q0 36 -12.5 63.5t-37.5 46.5t-49 31t-59 24t-140 40.5t-155 50.5q-67 29 -114 81 q-45 49 -45 138q0 56 22 95.5t61 73.5t77 58l76 50q38 25 60.5 52.5t22.5 66.5q0 49 -34 85t-83 52t-104 16q-83 0 -141 -39t-88 -105q-21 -47 -21 -104v-1042h-106z" />
<glyph unicode="&#xe0;" horiz-adv-x="1067" d="M113 305q0 118 60 195.5t159 111.5q62 21 127 21q209 0 336 -141v200q0 109 -74 168.5t-191 59.5q-105 0 -176.5 -36.5t-134.5 -109.5l-59 74q77 83 164.5 124.5t216.5 41.5q166 0 263 -80.5t97 -237.5v-696h-106v117q-130 -142 -336 -142q-111 0 -193.5 52t-123.5 137 q-29 59 -29 141zM221 1434h127l316 -295h-91zM225 303q0 -84 44.5 -141.5t115.5 -83.5q52 -19 111 -19q97 0 173.5 36.5t125.5 99.5v217q-48 64 -124.5 100.5t-174.5 36.5q-118 0 -194.5 -68t-76.5 -178z" />
<glyph unicode="&#xe1;" horiz-adv-x="1067" d="M113 305q0 118 60 195.5t159 111.5q62 21 127 21q209 0 336 -141v200q0 109 -74 168.5t-191 59.5q-105 0 -176.5 -36.5t-134.5 -109.5l-59 74q77 83 164.5 124.5t216.5 41.5q166 0 263 -80.5t97 -237.5v-696h-106v117q-130 -142 -336 -142q-111 0 -193.5 52t-123.5 137 q-29 59 -29 141zM225 303q0 -84 44.5 -141.5t115.5 -83.5q52 -19 111 -19q97 0 173.5 36.5t125.5 99.5v217q-48 64 -124.5 100.5t-174.5 36.5q-118 0 -194.5 -68t-76.5 -178zM418 1139l315 295h127l-352 -295h-90z" />
<glyph unicode="&#xe2;" horiz-adv-x="1067" d="M113 305q0 118 60 195.5t159 111.5q62 21 127 21q209 0 336 -141v200q0 109 -74 168.5t-191 59.5q-105 0 -176.5 -36.5t-134.5 -109.5l-59 74q77 83 164.5 124.5t216.5 41.5q166 0 263 -80.5t97 -237.5v-696h-106v117q-130 -142 -336 -142q-111 0 -193.5 52t-123.5 137 q-29 59 -29 141zM225 303q0 -84 44.5 -141.5t115.5 -83.5q52 -19 111 -19q97 0 173.5 36.5t125.5 99.5v217q-48 64 -124.5 100.5t-174.5 36.5q-118 0 -194.5 -68t-76.5 -178zM289 1139l198 295h111l203 -295h-82l-176 231l-172 -231h-82z" />
<glyph unicode="&#xe3;" horiz-adv-x="1067" d="M113 305q0 118 60 195.5t159 111.5q62 21 127 21q209 0 336 -141v200q0 109 -74 168.5t-191 59.5q-105 0 -176.5 -36.5t-134.5 -109.5l-59 74q77 83 164.5 124.5t216.5 41.5q166 0 263 -80.5t97 -237.5v-696h-106v117q-130 -142 -336 -142q-111 0 -193.5 52t-123.5 137 q-29 59 -29 141zM225 303q0 -84 44.5 -141.5t115.5 -83.5q52 -19 111 -19q97 0 173.5 36.5t125.5 99.5v217q-48 64 -124.5 100.5t-174.5 36.5q-118 0 -194.5 -68t-76.5 -178zM225 1147q0 88 28 154.5t81 98.5q35 21 82 21q28 0 50.5 -8t40.5 -26t28 -31.5t25 -38.5 q30 -48 47 -72q24 -33 65 -33q48 0 79 46t31 151h72q0 -89 -27 -155.5t-80 -97.5q-36 -21 -83 -21q-29 0 -51.5 8t-40.5 26t-28 31.5t-25 38.5q-29 48 -47 72q-23 32 -64 32q-48 0 -79 -46q-32 -47 -32 -150h-72z" />
<glyph unicode="&#xe4;" horiz-adv-x="1067" d="M113 305q0 118 60 195.5t159 111.5q62 21 127 21q209 0 336 -141v200q0 109 -74 168.5t-191 59.5q-105 0 -176.5 -36.5t-134.5 -109.5l-59 74q77 83 164.5 124.5t216.5 41.5q166 0 263 -80.5t97 -237.5v-696h-106v117q-130 -142 -336 -142q-111 0 -193.5 52t-123.5 137 q-29 59 -29 141zM225 303q0 -84 44.5 -141.5t115.5 -83.5q52 -19 111 -19q97 0 173.5 36.5t125.5 99.5v217q-48 64 -124.5 100.5t-174.5 36.5q-118 0 -194.5 -68t-76.5 -178zM252 1231q0 31 23 53.5t53 22.5q15 0 28.5 -6.5t24 -16.5t16.5 -24t6 -29q0 -30 -22.5 -53 t-52.5 -23t-53 22.5t-23 53.5zM670 1231q0 30 22.5 53t52.5 23q20 0 37.5 -10.5t28 -28t10.5 -37.5t-10.5 -37.5t-28 -28t-37.5 -10.5t-37 10.5t-27.5 28t-10.5 37.5z" />
<glyph unicode="&#xe5;" horiz-adv-x="1067" d="M113 305q0 118 60 195.5t159 111.5q62 21 127 21q209 0 336 -141v200q0 109 -74 168.5t-191 59.5q-105 0 -176.5 -36.5t-134.5 -109.5l-59 74q77 83 164.5 124.5t216.5 41.5q166 0 263 -80.5t97 -237.5v-696h-106v117q-130 -142 -336 -142q-111 0 -193.5 52t-123.5 137 q-29 59 -29 141zM225 303q0 -84 44.5 -141.5t115.5 -83.5q52 -19 111 -19q97 0 173.5 36.5t125.5 99.5v217q-48 64 -124.5 100.5t-174.5 36.5q-118 0 -194.5 -68t-76.5 -178zM344 1323q0 54 26.5 99t72 71.5t98.5 26.5q62 0 110 -34.5t69 -85.5q15 -36 15 -77 q0 -65 -34 -112t-86 -69q-38 -16 -74 -16q-64 0 -111.5 34.5t-70.5 86.5q-15 35 -15 76zM410 1323q0 -52 39.5 -91.5t91.5 -39.5q34 0 64 18t47.5 48.5t17.5 64.5q0 53 -38.5 92t-90.5 39t-91.5 -39.5t-39.5 -91.5z" />
<glyph unicode="&#xe6;" horiz-adv-x="1837" d="M113 305q0 117 60 195t158 111q66 22 128 22q207 0 336 -137v196q0 109 -74 168.5t-191 59.5q-105 0 -176.5 -36.5t-134.5 -109.5l-59 74q77 83 164.5 124.5t216.5 41.5q93 0 163 -26t114.5 -80.5t55.5 -133.5q38 78 104 135t154 85q62 20 134 20q111 0 197.5 -42 t145.5 -113q56 -67 88 -163t32 -207v-28h-828q7 -130 68 -225t161 -138q69 -30 158 -30q193 0 324 137l55 -70q-151 -160 -387 -160q-263 0 -408 218q-61 -100 -163.5 -159t-245.5 -59q-112 0 -195.5 52t-124.5 137q-30 61 -30 141zM225 303q0 -84 44.5 -141.5t115.5 -83.5 q52 -19 111 -19q89 0 179 41q87 40 154 158q-13 24 -23.5 70t-10.5 82q-49 64 -125.5 101.5t-173.5 37.5q-62 0 -112.5 -19t-84.5 -52.5t-54 -78.5q-20 -46 -20 -96zM901 545h719q0 79 -26.5 148t-71 117t-102.5 77q-70 35 -160 35q-65 0 -120 -19.5t-95.5 -54t-69.5 -78 t-47 -94.5q-26 -72 -27 -131z" />
<glyph unicode="&#xe7;" horiz-adv-x="1011" d="M111 496q0 173 76 296t205 182q87 40 198 40q124 0 204.5 -43t145.5 -125l-74 -66q-31 44 -67.5 73.5t-88 47t-114.5 17.5q-133 0 -221.5 -71t-125.5 -185q-26 -80 -26 -166q0 -141 58 -242.5t159 -149.5q67 -32 156 -32q171 0 270 139l74 -66q-54 -68 -130 -117 q-73 -47 -189 -53l-33 -86q34 23 76 23q60 0 97.5 -37.5t37.5 -97.5q0 -49 -30 -86t-76.5 -55.5t-100.5 -18.5q-57 0 -112.5 16.5t-86.5 42.5l35 66q71 -57 162 -57q53 0 93 24t40 68q0 38 -22 60t-60 22q-51 0 -84 -37l-55 33l43 122q-99 7 -179.5 52t-137.5 113 q-54 66 -85.5 156.5t-31.5 197.5z" />
<glyph unicode="&#xe8;" horiz-adv-x="1161" d="M111 496q0 170 78.5 293.5t206.5 183.5q88 41 190 41q214 0 346 -155q37 -44 64 -100t42 -125.5t15 -144.5v-28h-828q7 -131 68 -225t162 -138q69 -30 157 -30q196 0 324 137l55 -70q-151 -160 -387 -160q-87 0 -162 23.5t-131 66.5t-96.5 98t-67.5 123q-36 91 -36 210z M225 545h719q0 119 -55.5 207.5t-145.5 134.5q-68 35 -159 35q-65 0 -120.5 -19.5t-96 -54t-69.5 -77.5t-47 -95q-25 -69 -26 -131zM268 1434h127l316 -295h-90z" />
<glyph unicode="&#xe9;" horiz-adv-x="1161" d="M111 496q0 170 78.5 293.5t206.5 183.5q88 41 190 41q214 0 346 -155q37 -44 64 -100t42 -125.5t15 -144.5v-28h-828q7 -131 68 -225t162 -138q69 -30 157 -30q196 0 324 137l55 -70q-151 -160 -387 -160q-87 0 -162 23.5t-131 66.5t-96.5 98t-67.5 123q-36 91 -36 210z M225 545h719q0 119 -55.5 207.5t-145.5 134.5q-68 35 -159 35q-65 0 -120.5 -19.5t-96 -54t-69.5 -77.5t-47 -95q-25 -69 -26 -131zM467 1139l315 295h127l-352 -295h-90z" />
<glyph unicode="&#xea;" horiz-adv-x="1161" d="M111 496q0 170 78.5 293.5t206.5 183.5q88 41 190 41q214 0 346 -155q37 -44 64 -100t42 -125.5t15 -144.5v-28h-828q7 -131 68 -225t162 -138q69 -30 157 -30q196 0 324 137l55 -70q-151 -160 -387 -160q-87 0 -162 23.5t-131 66.5t-96.5 98t-67.5 123q-36 91 -36 210z M225 545h719q0 119 -55.5 207.5t-145.5 134.5q-68 35 -159 35q-65 0 -120.5 -19.5t-96 -54t-69.5 -77.5t-47 -95q-25 -69 -26 -131zM334 1139l198 295h111l203 -295h-82l-176 231l-172 -231h-82z" />
<glyph unicode="&#xeb;" horiz-adv-x="1161" d="M111 496q0 170 78.5 293.5t206.5 183.5q88 41 190 41q214 0 346 -155q37 -44 64 -100t42 -125.5t15 -144.5v-28h-828q7 -131 68 -225t162 -138q69 -30 157 -30q196 0 324 137l55 -70q-151 -160 -387 -160q-87 0 -162 23.5t-131 66.5t-96.5 98t-67.5 123q-36 91 -36 210z M225 545h719q0 119 -55.5 207.5t-145.5 134.5q-68 35 -159 35q-65 0 -120.5 -19.5t-96 -54t-69.5 -77.5t-47 -95q-25 -69 -26 -131zM303 1231q0 19 10.5 37t28.5 28.5t37 10.5q30 0 53 -23t23 -53q0 -19 -10.5 -37t-28.5 -28.5t-37 -10.5q-30 0 -53 23t-23 53zM721 1231 q0 20 10.5 37.5t28 28t37.5 10.5q30 0 52.5 -23t22.5 -53t-22.5 -53t-52.5 -23q-20 0 -37.5 10.5t-28 28t-10.5 37.5z" />
<glyph unicode="&#xec;" horiz-adv-x="438" d="M-102 1434h127l315 -295h-90zM166 0v989h106v-989h-106z" />
<glyph unicode="&#xed;" horiz-adv-x="438" d="M98 1139l316 295h127l-353 -295h-90zM166 0v989h106v-989h-106z" />
<glyph unicode="&#xee;" horiz-adv-x="438" d="M-37 1139l199 295h110l203 -295h-82l-176 231l-172 -231h-82zM166 0v989h106v-989h-106z" />
<glyph unicode="&#xef;" horiz-adv-x="438" d="M-66 1231q0 30 23 53t53 23t53 -23t23 -53t-23 -53t-53 -23t-53 23t-23 53zM166 0v989h106v-989h-106zM352 1231q0 30 23 53t53 23t53 -23t23 -53t-23 -53t-53 -23t-53 23t-23 53z" />
<glyph unicode="&#xf0;" d="M111 487q0 170 72 291.5t196 179.5q84 39 186 39q110 0 186 -45.5t136 -132.5q-64 104 -144.5 188t-185.5 164l-291 -127l-28 70l247 109q-32 23 -82 54l-84 54l62 90l112 -70q51 -32 109 -77l223 98l29 -67l-186 -84q131 -109 224 -232.5t138 -275.5q31 -104 31 -213 q0 -175 -75 -300.5t-204 -184.5q-87 -40 -198 -40q-86 0 -158.5 24t-126 67t-92 98t-63.5 122q-33 89 -33 201zM223 487q0 -135 55.5 -233t151.5 -147q68 -35 154 -35q165 0 269 127q93 114 93 288q0 134 -55.5 232t-151.5 147q-68 35 -155 35q-67 0 -123.5 -20.5 t-97.5 -56.5t-70 -81.5t-46 -100.5q-24 -75 -24 -155z" />
<glyph unicode="&#xf1;" horiz-adv-x="1105" d="M170 0v989h106v-149q44 53 110 94.5t141 63.5q56 16 106 16q157 0 234 -80t77 -242v-692h-106v670q0 248 -240 248q-83 0 -184 -52q-84 -43 -138 -118v-748h-106zM240 1147q0 88 27.5 154.5t80.5 98.5q34 21 82 21q28 0 50.5 -8t40.5 -26t28 -31.5t25 -38.5 q24 -39 48 -72t64 -33q48 0 79 46q32 47 32 151h71q0 -89 -27 -155.5t-80 -97.5q-36 -21 -83 -21q-28 0 -50.5 8t-40.5 26t-28 31.5t-25 38.5q-24 39 -48 72q-23 32 -64 32q-48 0 -79 -46q-32 -47 -32 -150h-71z" />
<glyph unicode="&#xf2;" d="M111 496q0 171 75 295t202 183q86 40 196 40q169 0 280 -86.5t163 -229.5q34 -93 34 -202q0 -172 -76 -297t-203 -183q-90 -41 -198 -41q-211 0 -344 153q-129 148 -129 368zM223 496q0 -137 55.5 -239t151.5 -151q67 -34 154 -34q68 0 125 20.5t98 57.5t69.5 83.5 t46.5 102.5q23 73 23 160q0 137 -55.5 237.5t-151.5 149.5q-68 35 -155 35q-54 0 -102 -14t-84.5 -37.5t-66 -57.5t-50 -72.5t-34.5 -82.5q-24 -76 -24 -158zM266 1434h127l316 -295h-91z" />
<glyph unicode="&#xf3;" d="M111 496q0 171 75 295t202 183q86 40 196 40q169 0 280 -86.5t163 -229.5q34 -93 34 -202q0 -172 -76 -297t-203 -183q-90 -41 -198 -41q-211 0 -344 153q-129 148 -129 368zM223 496q0 -137 55.5 -239t151.5 -151q67 -34 154 -34q68 0 125 20.5t98 57.5t69.5 83.5 t46.5 102.5q23 73 23 160q0 137 -55.5 237.5t-151.5 149.5q-68 35 -155 35q-54 0 -102 -14t-84.5 -37.5t-66 -57.5t-50 -72.5t-34.5 -82.5q-24 -76 -24 -158zM465 1139l315 295h127l-352 -295h-90z" />
<glyph unicode="&#xf4;" d="M111 496q0 171 75 295t202 183q86 40 196 40q169 0 280 -86.5t163 -229.5q34 -93 34 -202q0 -172 -76 -297t-203 -183q-90 -41 -198 -41q-211 0 -344 153q-129 148 -129 368zM223 496q0 -137 55.5 -239t151.5 -151q67 -34 154 -34q68 0 125 20.5t98 57.5t69.5 83.5 t46.5 102.5q23 73 23 160q0 137 -55.5 237.5t-151.5 149.5q-68 35 -155 35q-54 0 -102 -14t-84.5 -37.5t-66 -57.5t-50 -72.5t-34.5 -82.5q-24 -76 -24 -158zM332 1139l198 295h111l203 -295h-82l-176 231l-172 -231h-82z" />
<glyph unicode="&#xf5;" d="M111 496q0 171 75 295t202 183q86 40 196 40q169 0 280 -86.5t163 -229.5q34 -93 34 -202q0 -172 -76 -297t-203 -183q-90 -41 -198 -41q-211 0 -344 153q-129 148 -129 368zM223 496q0 -137 55.5 -239t151.5 -151q67 -34 154 -34q68 0 125 20.5t98 57.5t69.5 83.5 t46.5 102.5q23 73 23 160q0 137 -55.5 237.5t-151.5 149.5q-68 35 -155 35q-54 0 -102 -14t-84.5 -37.5t-66 -57.5t-50 -72.5t-34.5 -82.5q-24 -76 -24 -158zM270 1147q0 88 28 154.5t81 98.5q34 21 82 21q28 0 50.5 -8t40.5 -26t28 -31.5t25 -38.5q29 -48 47 -72 q24 -33 65 -33q48 0 79 46t31 151h72q0 -89 -27 -155.5t-80 -97.5q-36 -21 -83 -21q-23 0 -43 6.5t-33.5 15.5t-27.5 24.5t-21.5 27t-19.5 30.5q-30 48 -47 72q-23 32 -64 32q-48 0 -79 -46q-32 -47 -32 -150h-72z" />
<glyph unicode="&#xf6;" d="M111 496q0 171 75 295t202 183q86 40 196 40q169 0 280 -86.5t163 -229.5q34 -93 34 -202q0 -172 -76 -297t-203 -183q-90 -41 -198 -41q-211 0 -344 153q-129 148 -129 368zM223 496q0 -137 55.5 -239t151.5 -151q67 -34 154 -34q68 0 125 20.5t98 57.5t69.5 83.5 t46.5 102.5q23 73 23 160q0 137 -55.5 237.5t-151.5 149.5q-68 35 -155 35q-54 0 -102 -14t-84.5 -37.5t-66 -57.5t-50 -72.5t-34.5 -82.5q-24 -76 -24 -158zM301 1231q0 19 10.5 37t28.5 28.5t37 10.5t37 -10.5t28.5 -28.5t10.5 -37t-10.5 -37t-28.5 -28.5t-37 -10.5 t-37 10.5t-28.5 28.5t-10.5 37zM719 1231q0 20 10.5 37.5t28 28t37.5 10.5t37 -10.5t27.5 -28t10.5 -37.5q0 -30 -22.5 -53t-52.5 -23q-20 0 -37.5 10.5t-28 28t-10.5 37.5z" />
<glyph unicode="&#xf7;" horiz-adv-x="1046" d="M59 647v86h928v-86h-928zM442 285q0 33 24.5 56.5t57.5 23.5t56.5 -23.5t23.5 -56.5q0 -35 -23 -58.5t-57 -23.5q-35 0 -58.5 23.5t-23.5 58.5zM442 1087q0 34 23.5 57t58.5 23q34 0 57 -22.5t23 -57.5q0 -33 -23.5 -57t-56.5 -24t-57.5 24t-24.5 57z" />
<glyph unicode="&#xf8;" d="M111 496q0 171 75 295t202 183q86 40 196 40q155 0 276 -88l49 63h90l-84 -108q146 -152 146 -385q0 -172 -76 -297t-203 -183q-90 -41 -198 -41q-168 0 -287 97l-55 -72h-90l92 121q-133 145 -133 375zM223 496q0 -168 88 -289l486 637q-87 74 -213 74q-54 0 -102 -14 t-84.5 -37.5t-66 -57.5t-50 -72.5t-34.5 -82.5q-24 -76 -24 -158zM360 154q91 -82 224 -82q68 0 125 20.5t98 57.5t69.5 83.5t46.5 102.5q23 73 23 160q0 171 -98 297z" />
<glyph unicode="&#xf9;" horiz-adv-x="1105" d="M166 293v696h106v-672q0 -126 58 -185.5t182 -59.5q140 0 261 101q39 32 61 63v753h106v-989h-106v145q-95 -109 -252 -155q-51 -15 -105 -15q-158 0 -234.5 78t-76.5 240zM238 1434h127l315 -295h-90z" />
<glyph unicode="&#xfa;" horiz-adv-x="1105" d="M166 293v696h106v-672q0 -126 58 -185.5t182 -59.5q140 0 261 101q39 32 61 63v753h106v-989h-106v145q-95 -109 -252 -155q-51 -15 -105 -15q-158 0 -234.5 78t-76.5 240zM434 1139l316 295h127l-353 -295h-90z" />
<glyph unicode="&#xfb;" horiz-adv-x="1105" d="M166 293v696h106v-672q0 -126 58 -185.5t182 -59.5q140 0 261 101q39 32 61 63v753h106v-989h-106v145q-95 -109 -252 -155q-51 -15 -105 -15q-158 0 -234.5 78t-76.5 240zM297 1139l199 295h110l203 -295h-82l-176 231l-172 -231h-82z" />
<glyph unicode="&#xfc;" horiz-adv-x="1105" d="M166 293v696h106v-672q0 -126 58 -185.5t182 -59.5q140 0 261 101q39 32 61 63v753h106v-989h-106v145q-95 -109 -252 -155q-51 -15 -105 -15q-158 0 -234.5 78t-76.5 240zM276 1231q0 19 10.5 37t28.5 28.5t37 10.5q30 0 53 -22.5t23 -53.5t-23 -53.5t-53 -22.5 q-19 0 -37 10.5t-28.5 28.5t-10.5 37zM694 1231q0 30 23 53t53 23q19 0 37 -10.5t28.5 -28.5t10.5 -37q0 -30 -23 -53t-53 -23q-19 0 -37 10.5t-28.5 28.5t-10.5 37z" />
<glyph unicode="&#xfd;" horiz-adv-x="985" d="M14 989h119l361 -864l356 864h121l-512 -1206q-78 -184 -252 -184q-58 0 -107 14l19 98q35 -16 86 -16q62 0 93.5 28.5t57.5 92.5l78 176zM373 1139l315 295h127l-352 -295h-90z" />
<glyph unicode="&#xfe;" horiz-adv-x="1161" d="M166 -377v1743h106v-532q52 76 143.5 128t200.5 52q159 0 262.5 -83t148.5 -220q32 -98 32 -215q0 -178 -68.5 -302.5t-193.5 -181.5q-81 -37 -181 -37q-110 0 -198.5 52t-145.5 133v-537h-106zM272 252q35 -57 94.5 -100t131.5 -65q50 -15 100 -15q160 0 256 122 q90 114 90 302q0 94 -23.5 171t-68 132.5t-108.5 86.5q-66 32 -146 32q-102 0 -192 -52.5t-134 -124.5v-489z" />
<glyph unicode="&#xff;" horiz-adv-x="985" d="M14 989h119l361 -864l356 864h121l-512 -1206q-78 -184 -252 -184q-58 0 -107 14l19 98q35 -16 86 -16q62 0 93.5 28.5t57.5 92.5l78 176zM209 1231q0 31 23 53.5t53 22.5t52.5 -23t22.5 -53t-22.5 -53t-52.5 -23t-53 22.5t-23 53.5zM627 1231q0 30 22.5 53t52.5 23 t53 -22.5t23 -53.5t-23 -53.5t-53 -22.5t-52.5 23t-22.5 53z" />
<glyph unicode="&#x2c6;" horiz-adv-x="512" d="M0 1139l199 295h110l203 -295h-82l-176 231l-172 -231h-82z" />
<glyph unicode="&#x2dc;" horiz-adv-x="628" d="M0 1147q0 89 28 155t81 98q35 21 81 21q37 0 67 -17.5t43.5 -35t34.5 -51.5q29 -48 47 -72q24 -33 64 -33q48 0 79 46q32 47 32 151h72q0 -55 -10.5 -102.5t-32.5 -87t-60 -62t-88 -22.5q-28 0 -50.5 8t-40.5 26t-28 31.5t-25 38.5q-4 6 -13 22t-14 24t-15.5 21t-19.5 20 t-22 12t-28 5q-48 0 -79 -46t-31 -150h-72z" />
<glyph unicode="&#x2000;" horiz-adv-x="905" />
<glyph unicode="&#x2001;" horiz-adv-x="1810" />
<glyph unicode="&#x2002;" horiz-adv-x="905" />
<glyph unicode="&#x2003;" horiz-adv-x="1810" />
<glyph unicode="&#x2004;" horiz-adv-x="603" />
<glyph unicode="&#x2005;" horiz-adv-x="452" />
<glyph unicode="&#x2006;" horiz-adv-x="301" />
<glyph unicode="&#x2007;" horiz-adv-x="301" />
<glyph unicode="&#x2008;" horiz-adv-x="226" />
<glyph unicode="&#x2009;" horiz-adv-x="362" />
<glyph unicode="&#x200a;" horiz-adv-x="100" />
<glyph unicode="&#x2010;" horiz-adv-x="614" d="M61 446v99h492v-99h-492z" />
<glyph unicode="&#x2011;" horiz-adv-x="614" d="M61 446v99h492v-99h-492z" />
<glyph unicode="&#x2012;" horiz-adv-x="614" d="M61 446v99h492v-99h-492z" />
<glyph unicode="&#x2013;" horiz-adv-x="1214" d="M61 446v99h1092v-99h-1092z" />
<glyph unicode="&#x2014;" horiz-adv-x="1705" d="M61 446v99h1584v-99h-1584z" />
<glyph unicode="&#x2018;" horiz-adv-x="448" d="M104 1108q0 85 43.5 159.5t104.5 118.5l59 -49q-45 -31 -79 -83t-39 -107q0 4 20 4q36 0 60 -25t24 -61q0 -35 -26.5 -61.5t-61.5 -26.5q-47 0 -76 38t-29 93z" />
<glyph unicode="&#x2019;" horiz-adv-x="448" d="M119 1026q45 31 79.5 83.5t39.5 107.5q0 -5 -21 -5q-36 0 -60 25t-24 61q0 35 26 61.5t62 26.5q48 0 76.5 -37.5t28.5 -93.5q0 -84 -44 -159t-104 -119z" />
<glyph unicode="&#x201a;" horiz-adv-x="448" d="M119 -201q44 31 79 83t40 106q-6 -2 -9 -2h-12q-37 0 -60.5 24.5t-23.5 61.5q0 35 26.5 61.5t61.5 26.5q47 0 76 -38t29 -93q0 -85 -44 -162t-104 -117z" />
<glyph unicode="&#x201c;" horiz-adv-x="739" d="M123 1108q0 85 42.5 160t102.5 118l62 -49q-45 -31 -80.5 -83.5t-40.5 -106.5q4 4 22 4q35 0 58.5 -25t23.5 -61t-25 -62t-61 -26q-47 0 -75.5 38t-28.5 93zM414 1108q0 85 42.5 160t102.5 118l62 -49q-45 -31 -80.5 -83.5t-40.5 -106.5q4 4 22 4q35 0 58.5 -25t23.5 -61 t-25.5 -62t-62.5 -26q-47 0 -74.5 37.5t-27.5 93.5z" />
<glyph unicode="&#x201d;" horiz-adv-x="739" d="M119 1026q45 31 79.5 83.5t39.5 107.5q0 -5 -21 -5q-36 0 -60 25t-24 61q0 35 26 61.5t62 26.5q48 0 76.5 -37.5t28.5 -93.5q0 -84 -44 -159t-104 -119zM408 1026q44 31 79.5 84t40.5 107q-5 -5 -22 -5q-35 0 -58.5 25t-23.5 61t25.5 62t62.5 26q48 0 75 -37t27 -94 q0 -84 -43 -159.5t-102 -118.5z" />
<glyph unicode="&#x201e;" horiz-adv-x="739" d="M119 -201q44 31 79 83t40 106q-6 -2 -9 -2h-12q-37 0 -60.5 24.5t-23.5 61.5q0 35 26.5 61.5t61.5 26.5q47 0 76 -38t29 -93q0 -85 -44 -162t-104 -117zM408 -201q43 30 79 83t41 106q-2 0 -10.5 -1t-11.5 -1q-36 0 -59 24.5t-23 61.5q0 36 26 62t62 26q32 0 55.5 -18 t35 -47.5t11.5 -65.5q0 -84 -43 -161.5t-102 -117.5z" />
<glyph unicode="&#x2022;" horiz-adv-x="733" d="M158 496q0 70 36 120t93 74q40 17 82 17q69 0 119.5 -36.5t74.5 -92.5q17 -40 17 -82q0 -69 -36.5 -119t-92.5 -74q-38 -16 -82 -16q-70 0 -120 35.5t-75 92.5q-16 36 -16 81z" />
<glyph unicode="&#x2026;" horiz-adv-x="1345" d="M135 72q0 35 27.5 61.5t62.5 26.5q36 0 63 -26.5t27 -61.5q0 -37 -26.5 -63.5t-63.5 -26.5t-63.5 26.5t-26.5 63.5zM584 72q0 35 27 61.5t63 26.5q35 0 62.5 -26.5t27.5 -61.5q0 -37 -26.5 -63.5t-63.5 -26.5t-63.5 26.5t-26.5 63.5zM1032 72q0 35 27.5 61.5t62.5 26.5 q36 0 63 -26.5t27 -61.5q0 -37 -26.5 -63.5t-63.5 -26.5t-63.5 26.5t-26.5 63.5z" />
<glyph unicode="&#x202f;" horiz-adv-x="362" />
<glyph unicode="&#x2039;" horiz-adv-x="567" d="M61 498l328 362h117l-328 -362l328 -369h-117z" />
<glyph unicode="&#x203a;" horiz-adv-x="567" d="M61 129l328 369l-328 362h117l328 -362l-328 -369h-117z" />
<glyph unicode="&#x205f;" horiz-adv-x="452" />
<glyph unicode="&#x2122;" horiz-adv-x="929" d="M35 1313v53h311v-53h-127v-398h-57v398h-127zM420 915v451h88l131 -328l131 328h88v-451h-57v373l-154 -373h-16l-154 373v-373h-57z" />
<glyph unicode="&#xe000;" horiz-adv-x="993" d="M0 0v993h993v-993h-993z" />
</font>
</defs>
</svg>
